<svg width="190" height="83" viewBox="0 0 190 83" fill="none" xmlns="http://www.w3.org/2000/svg">
<g filter="url(#filter0_d)">
<rect x="20" y="13" width="150" height="43" rx="10" fill="#E8F5FF"/>
</g>
<path d="M37 35C37 26.7157 43.7157 20 52 20C60.2843 20 67 26.7157 67 35C67 43.2843 60.2843 50 52 50C43.7157 50 37 43.2843 37 35Z" fill="white"/>
<path d="M52 31.0133C53.2206 31.0133 54.0439 31.5406 54.5134 31.9811L56.3478 30.19C55.2211 29.1428 53.755 28.5 52 28.5C49.4578 28.5 47.2622 29.9589 46.1934 32.0822L48.295 33.7144C48.8222 32.1472 50.2811 31.0133 52 31.0133Z" fill="#EA4335"/>
<path d="M58.24 35.1444C58.24 34.61 58.1967 34.22 58.1028 33.8156H52V36.2278H55.5822C55.51 36.8272 55.12 37.73 54.2533 38.3367L56.3044 39.9256C57.5322 38.7917 58.24 37.1233 58.24 35.1444Z" fill="#4285F4"/>
<path d="M48.3022 36.2856C48.165 35.8812 48.0856 35.4478 48.0856 35.0001C48.0856 34.5523 48.165 34.1189 48.295 33.7145L46.1933 32.0823C45.7528 32.9634 45.5 33.9528 45.5 35.0001C45.5 36.0473 45.7528 37.0367 46.1933 37.9178L48.3022 36.2856Z" fill="#FBBC05"/>
<path d="M51.9999 41.5C53.7549 41.5 55.2282 40.9222 56.3043 39.9255L54.2532 38.3366C53.7043 38.7194 52.9677 38.9866 51.9999 38.9866C50.281 38.9866 48.8221 37.8527 48.3021 36.2855L46.2004 37.9177C47.2693 40.0411 49.4577 41.5 51.9999 41.5Z" fill="#34A853"/>
<path d="M92.3643 34.142C92.6403 34.142 92.8623 34.226 93.0303 34.394C93.1983 34.55 93.2823 34.76 93.2823 35.024V38.894C93.2823 39.446 93.2103 39.836 93.0663 40.064C92.9223 40.292 92.6283 40.478 92.1843 40.622C91.7043 40.79 91.1463 40.922 90.5103 41.018C89.8743 41.114 89.2623 41.162 88.6743 41.162C87.3663 41.162 86.2323 40.904 85.2723 40.388C84.3123 39.872 83.5743 39.128 83.0583 38.156C82.5543 37.172 82.3023 36.002 82.3023 34.646C82.3023 33.314 82.5543 32.162 83.0583 31.19C83.5743 30.206 84.3003 29.456 85.2363 28.94C86.1723 28.412 87.2763 28.148 88.5483 28.148C90.2403 28.148 91.6263 28.604 92.7063 29.516C92.8503 29.648 92.9523 29.78 93.0123 29.912C93.0843 30.044 93.1203 30.2 93.1203 30.38C93.1203 30.644 93.0483 30.866 92.9043 31.046C92.7603 31.226 92.5863 31.316 92.3823 31.316C92.2503 31.316 92.1303 31.298 92.0223 31.262C91.9143 31.214 91.7883 31.142 91.6443 31.046C91.1163 30.674 90.6243 30.416 90.1683 30.272C89.7123 30.116 89.1963 30.038 88.6203 30.038C87.3123 30.038 86.3223 30.428 85.6503 31.208C84.9903 31.976 84.6603 33.122 84.6603 34.646C84.6603 37.766 86.0283 39.326 88.7643 39.326C89.5803 39.326 90.3963 39.212 91.2123 38.984V35.798H89.1783C88.8903 35.798 88.6623 35.726 88.4943 35.582C88.3383 35.438 88.2603 35.234 88.2603 34.97C88.2603 34.706 88.3383 34.502 88.4943 34.358C88.6623 34.214 88.8903 34.142 89.1783 34.142H92.3643ZM100.795 41.144C99.8954 41.144 99.1034 40.958 98.4194 40.586C97.7474 40.214 97.2254 39.68 96.8534 38.984C96.4814 38.288 96.2954 37.478 96.2954 36.554C96.2954 35.63 96.4814 34.826 96.8534 34.142C97.2254 33.446 97.7474 32.912 98.4194 32.54C99.1034 32.168 99.8954 31.982 100.795 31.982C101.695 31.982 102.481 32.168 103.153 32.54C103.837 32.912 104.359 33.446 104.719 34.142C105.091 34.826 105.277 35.63 105.277 36.554C105.277 37.478 105.091 38.288 104.719 38.984C104.359 39.68 103.837 40.214 103.153 40.586C102.481 40.958 101.695 41.144 100.795 41.144ZM100.777 39.398C101.509 39.398 102.067 39.158 102.451 38.678C102.835 38.198 103.027 37.49 103.027 36.554C103.027 35.63 102.835 34.928 102.451 34.448C102.067 33.956 101.515 33.71 100.795 33.71C100.075 33.71 99.5174 33.956 99.1214 34.448C98.7374 34.928 98.5454 35.63 98.5454 36.554C98.5454 37.49 98.7374 38.198 99.1214 38.678C99.5054 39.158 100.057 39.398 100.777 39.398ZM112.229 41.144C111.329 41.144 110.537 40.958 109.853 40.586C109.181 40.214 108.659 39.68 108.287 38.984C107.915 38.288 107.729 37.478 107.729 36.554C107.729 35.63 107.915 34.826 108.287 34.142C108.659 33.446 109.181 32.912 109.853 32.54C110.537 32.168 111.329 31.982 112.229 31.982C113.129 31.982 113.915 32.168 114.587 32.54C115.271 32.912 115.793 33.446 116.153 34.142C116.525 34.826 116.711 35.63 116.711 36.554C116.711 37.478 116.525 38.288 116.153 38.984C115.793 39.68 115.271 40.214 114.587 40.586C113.915 40.958 113.129 41.144 112.229 41.144ZM112.211 39.398C112.943 39.398 113.501 39.158 113.885 38.678C114.269 38.198 114.461 37.49 114.461 36.554C114.461 35.63 114.269 34.928 113.885 34.448C113.501 33.956 112.949 33.71 112.229 33.71C111.509 33.71 110.951 33.956 110.555 34.448C110.171 34.928 109.979 35.63 109.979 36.554C109.979 37.49 110.171 38.198 110.555 38.678C110.939 39.158 111.491 39.398 112.211 39.398ZM127.1 32.018C127.436 32.018 127.706 32.114 127.91 32.306C128.114 32.498 128.216 32.756 128.216 33.08V40.19C128.216 41.57 127.832 42.614 127.064 43.322C126.296 44.03 125.162 44.384 123.662 44.384C122.354 44.384 121.262 44.138 120.386 43.646C119.942 43.382 119.72 43.064 119.72 42.692C119.72 42.428 119.78 42.218 119.9 42.062C120.032 41.906 120.2 41.828 120.404 41.828C120.512 41.828 120.644 41.852 120.8 41.9C120.956 41.96 121.118 42.026 121.286 42.098C121.718 42.278 122.102 42.416 122.438 42.512C122.786 42.608 123.182 42.656 123.626 42.656C125.198 42.656 125.984 41.888 125.984 40.352V39.2C125.72 39.692 125.336 40.076 124.832 40.352C124.328 40.616 123.752 40.748 123.104 40.748C122.336 40.748 121.652 40.568 121.052 40.208C120.464 39.836 120.002 39.32 119.666 38.66C119.33 38 119.162 37.238 119.162 36.374C119.162 35.51 119.324 34.748 119.648 34.088C119.984 33.416 120.452 32.9 121.052 32.54C121.652 32.168 122.336 31.982 123.104 31.982C123.752 31.982 124.328 32.12 124.832 32.396C125.336 32.66 125.72 33.038 125.984 33.53V33.062C125.984 32.75 126.086 32.498 126.29 32.306C126.494 32.114 126.764 32.018 127.1 32.018ZM123.698 39.002C124.418 39.002 124.976 38.768 125.372 38.3C125.78 37.832 125.984 37.19 125.984 36.374C125.984 35.546 125.78 34.898 125.372 34.43C124.976 33.962 124.418 33.728 123.698 33.728C122.99 33.728 122.432 33.962 122.024 34.43C121.616 34.898 121.412 35.546 121.412 36.374C121.412 37.19 121.616 37.832 122.024 38.3C122.432 38.768 122.99 39.002 123.698 39.002ZM132.743 41.108C132.419 41.108 132.149 41.018 131.933 40.838C131.729 40.646 131.627 40.376 131.627 40.028V29.282C131.627 28.934 131.729 28.67 131.933 28.49C132.149 28.31 132.419 28.22 132.743 28.22C133.067 28.22 133.337 28.31 133.553 28.49C133.769 28.67 133.877 28.934 133.877 29.282V40.028C133.877 40.376 133.769 40.646 133.553 40.838C133.337 41.018 133.067 41.108 132.743 41.108ZM144.243 38.588C144.447 38.588 144.609 38.666 144.729 38.822C144.861 38.978 144.927 39.188 144.927 39.452C144.927 39.824 144.705 40.136 144.261 40.388C143.853 40.616 143.391 40.802 142.875 40.946C142.359 41.078 141.867 41.144 141.399 41.144C139.983 41.144 138.861 40.736 138.033 39.92C137.205 39.104 136.791 37.988 136.791 36.572C136.791 35.672 136.971 34.874 137.331 34.178C137.691 33.482 138.195 32.942 138.843 32.558C139.503 32.174 140.247 31.982 141.075 31.982C141.867 31.982 142.557 32.156 143.145 32.504C143.733 32.852 144.189 33.344 144.513 33.98C144.837 34.616 144.999 35.366 144.999 36.23C144.999 36.746 144.771 37.004 144.315 37.004H139.005C139.077 37.832 139.311 38.444 139.707 38.84C140.103 39.224 140.679 39.416 141.435 39.416C141.819 39.416 142.155 39.368 142.443 39.272C142.743 39.176 143.079 39.044 143.451 38.876C143.811 38.684 144.075 38.588 144.243 38.588ZM141.129 33.566C140.517 33.566 140.025 33.758 139.653 34.142C139.293 34.526 139.077 35.078 139.005 35.798H143.073C143.049 35.066 142.869 34.514 142.533 34.142C142.197 33.758 141.729 33.566 141.129 33.566Z" fill="#3750B2"/>
<defs>
<filter id="filter0_d" x="0" y="0" width="190" height="83" filterUnits="userSpaceOnUse" color-interpolation-filters="sRGB">
<feFlood flood-opacity="0" result="BackgroundImageFix"/>
<feColorMatrix in="SourceAlpha" type="matrix" values="0 0 0 0 0 0 0 0 0 0 0 0 0 0 0 0 0 0 127 0"/>
<feOffset dy="7"/>
<feGaussianBlur stdDeviation="10"/>
<feColorMatrix type="matrix" values="0 0 0 0 0.215686 0 0 0 0 0.313726 0 0 0 0 0.698039 0 0 0 0.4 0"/>
<feBlend mode="normal" in2="BackgroundImageFix" result="effect1_dropShadow"/>
<feBlend mode="normal" in="SourceGraphic" in2="effect1_dropShadow" result="shape"/>
</filter>
</defs>
</svg>
