<svg width="292" height="83" viewBox="0 0 292 83" fill="none" xmlns="http://www.w3.org/2000/svg">
<g filter="url(#filter0_d)">
<rect x="20" y="13" width="252" height="43" rx="10" fill="#3750B2"/>
</g>
<path d="M55.3447 36.0485L55.863 32.8155H52.621V30.7184C52.621 29.8337 53.0731 28.9709 54.5251 28.9709H56V26.2184C56 26.2184 54.6621 26 53.3836 26C50.7123 26 48.968 27.5488 48.968 30.3515V32.8155H46V36.0485H48.968V43.8646C49.5639 43.9541 50.1735 44 50.7945 44C51.4155 44 52.0251 43.9541 52.621 43.8646V36.0485H55.3447Z" fill="#E8F5FF"/>
<path d="M67.1786 41.126C66.3386 41.126 65.5873 40.958 64.9246 40.622C64.2619 40.286 63.7439 39.8193 63.3706 39.222C63.0066 38.6247 62.8246 37.948 62.8246 37.192C62.8246 36.436 63.0066 35.764 63.3706 35.176C63.7439 34.5787 64.2619 34.1167 64.9246 33.79C65.5873 33.454 66.3386 33.286 67.1786 33.286C68.0373 33.286 68.7793 33.4727 69.4046 33.846C70.0299 34.21 70.4733 34.7187 70.7346 35.372L68.6766 36.422C68.3313 35.7407 67.8273 35.4 67.1646 35.4C66.6886 35.4 66.2919 35.5587 65.9746 35.876C65.6666 36.1933 65.5126 36.632 65.5126 37.192C65.5126 37.7613 65.6666 38.2093 65.9746 38.536C66.2919 38.8533 66.6886 39.012 67.1646 39.012C67.8273 39.012 68.3313 38.6713 68.6766 37.99L70.7346 39.04C70.4733 39.6933 70.0299 40.2067 69.4046 40.58C68.7793 40.944 68.0373 41.126 67.1786 41.126ZM76.3021 41.126C75.4901 41.126 74.7575 40.958 74.1041 40.622C73.4508 40.286 72.9375 39.8193 72.5641 39.222C72.2001 38.6247 72.0181 37.948 72.0181 37.192C72.0181 36.4453 72.2001 35.7733 72.5641 35.176C72.9375 34.5787 73.4461 34.1167 74.0901 33.79C74.7435 33.454 75.4808 33.286 76.3021 33.286C77.1235 33.286 77.8608 33.454 78.5141 33.79C79.1675 34.1167 79.6761 34.5787 80.0401 35.176C80.4041 35.764 80.5861 36.436 80.5861 37.192C80.5861 37.948 80.4041 38.6247 80.0401 39.222C79.6761 39.8193 79.1675 40.286 78.5141 40.622C77.8608 40.958 77.1235 41.126 76.3021 41.126ZM76.3021 39.012C76.7688 39.012 77.1515 38.8533 77.4501 38.536C77.7488 38.2093 77.8981 37.7613 77.8981 37.192C77.8981 36.632 77.7488 36.1933 77.4501 35.876C77.1515 35.5587 76.7688 35.4 76.3021 35.4C75.8355 35.4 75.4528 35.5587 75.1541 35.876C74.8555 36.1933 74.7061 36.632 74.7061 37.192C74.7061 37.7613 74.8555 38.2093 75.1541 38.536C75.4528 38.8533 75.8355 39.012 76.3021 39.012ZM87.6003 33.286C88.543 33.286 89.299 33.566 89.8683 34.126C90.447 34.686 90.7363 35.5307 90.7363 36.66V41H88.0763V37.094C88.0763 36.058 87.661 35.54 86.8303 35.54C86.373 35.54 86.0043 35.6893 85.7243 35.988C85.4537 36.2867 85.3183 36.7347 85.3183 37.332V41H82.6583V33.412H85.1923V34.238C85.491 33.93 85.8457 33.6967 86.2563 33.538C86.667 33.37 87.115 33.286 87.6003 33.286ZM98.4824 40.692C98.2584 40.832 97.9831 40.9393 97.6564 41.014C97.3391 41.0887 96.9984 41.126 96.6344 41.126C95.6451 41.126 94.8844 40.8833 94.3524 40.398C93.8204 39.9127 93.5544 39.1893 93.5544 38.228V35.68H92.4484V33.692H93.5544V31.718H96.2144V33.692H97.9504V35.68H96.2144V38.2C96.2144 38.4707 96.2844 38.6853 96.4244 38.844C96.5737 38.9933 96.7697 39.068 97.0124 39.068C97.3204 39.068 97.5911 38.9887 97.8244 38.83L98.4824 40.692ZM100.348 33.412H103.008V41H100.348V33.412ZM101.678 32.572C101.193 32.572 100.801 32.4367 100.502 32.166C100.203 31.8953 100.054 31.5593 100.054 31.158C100.054 30.7567 100.203 30.4207 100.502 30.15C100.801 29.8793 101.193 29.744 101.678 29.744C102.163 29.744 102.555 29.8747 102.854 30.136C103.153 30.388 103.302 30.7147 103.302 31.116C103.302 31.536 103.153 31.886 102.854 32.166C102.555 32.4367 102.163 32.572 101.678 32.572ZM110.519 33.286C111.461 33.286 112.217 33.566 112.787 34.126C113.365 34.686 113.655 35.5307 113.655 36.66V41H110.995V37.094C110.995 36.058 110.579 35.54 109.749 35.54C109.291 35.54 108.923 35.6893 108.643 35.988C108.372 36.2867 108.237 36.7347 108.237 37.332V41H105.577V33.412H108.111V34.238C108.409 33.93 108.764 33.6967 109.175 33.538C109.585 33.37 110.033 33.286 110.519 33.286ZM124.145 33.412V41H121.611V40.188C121.331 40.496 120.995 40.7293 120.603 40.888C120.211 41.0467 119.795 41.126 119.357 41.126C118.377 41.126 117.593 40.8367 117.005 40.258C116.426 39.6793 116.137 38.8113 116.137 37.654V33.412H118.797V37.22C118.797 37.7893 118.904 38.2047 119.119 38.466C119.333 38.7273 119.646 38.858 120.057 38.858C120.477 38.858 120.817 38.7133 121.079 38.424C121.349 38.1253 121.485 37.6727 121.485 37.066V33.412H124.145ZM134.454 37.22C134.454 37.2387 134.44 37.458 134.412 37.878H128.896C129.008 38.27 129.223 38.5733 129.54 38.788C129.867 38.9933 130.273 39.096 130.758 39.096C131.122 39.096 131.435 39.0447 131.696 38.942C131.967 38.8393 132.238 38.6713 132.508 38.438L133.908 39.894C133.171 40.7153 132.093 41.126 130.674 41.126C129.788 41.126 129.008 40.958 128.336 40.622C127.664 40.286 127.142 39.8193 126.768 39.222C126.404 38.6247 126.222 37.948 126.222 37.192C126.222 36.4453 126.4 35.778 126.754 35.19C127.118 34.5927 127.618 34.126 128.252 33.79C128.887 33.454 129.601 33.286 130.394 33.286C131.15 33.286 131.836 33.4447 132.452 33.762C133.068 34.07 133.554 34.5227 133.908 35.12C134.272 35.708 134.454 36.408 134.454 37.22ZM130.408 35.176C129.998 35.176 129.652 35.2927 129.372 35.526C129.102 35.7593 128.929 36.0767 128.854 36.478H131.962C131.888 36.0767 131.71 35.7593 131.43 35.526C131.16 35.2927 130.819 35.176 130.408 35.176ZM154.007 33.412L151.305 41H148.729L147.301 36.87L145.817 41H143.241L140.539 33.412H143.059L144.613 38.004L146.223 33.412H148.491L150.059 38.046L151.669 33.412H154.007ZM155.66 33.412H158.32V41H155.66V33.412ZM156.99 32.572C156.504 32.572 156.112 32.4367 155.814 32.166C155.515 31.8953 155.366 31.5593 155.366 31.158C155.366 30.7567 155.515 30.4207 155.814 30.15C156.112 29.8793 156.504 29.744 156.99 29.744C157.475 29.744 157.867 29.8747 158.166 30.136C158.464 30.388 158.614 30.7147 158.614 31.116C158.614 31.536 158.464 31.886 158.166 32.166C157.867 32.4367 157.475 32.572 156.99 32.572ZM166.124 40.692C165.9 40.832 165.625 40.9393 165.298 41.014C164.981 41.0887 164.64 41.126 164.276 41.126C163.287 41.126 162.526 40.8833 161.994 40.398C161.462 39.9127 161.196 39.1893 161.196 38.228V35.68H160.09V33.692H161.196V31.718H163.856V33.692H165.592V35.68H163.856V38.2C163.856 38.4707 163.926 38.6853 164.066 38.844C164.216 38.9933 164.412 39.068 164.654 39.068C164.962 39.068 165.233 38.9887 165.466 38.83L166.124 40.692ZM172.932 33.286C173.875 33.286 174.631 33.566 175.2 34.126C175.779 34.686 176.068 35.5307 176.068 36.66V41H173.408V37.094C173.408 36.058 172.993 35.54 172.162 35.54C171.705 35.54 171.336 35.6893 171.056 35.988C170.785 36.2867 170.65 36.7347 170.65 37.332V41H167.99V30.612H170.65V34.112C170.939 33.8413 171.28 33.636 171.672 33.496C172.064 33.356 172.484 33.286 172.932 33.286ZM186.39 33.342V35.498H190.716V37.64H186.39V41H183.618V31.2H191.304V33.342H186.39ZM196.385 33.286C197.645 33.286 198.606 33.5753 199.269 34.154C199.931 34.7233 200.263 35.6007 200.263 36.786V41H197.785V40.02C197.402 40.7573 196.655 41.126 195.545 41.126C194.957 41.126 194.448 41.0233 194.019 40.818C193.589 40.6127 193.263 40.3373 193.039 39.992C192.824 39.6373 192.717 39.236 192.717 38.788C192.717 38.0693 192.992 37.514 193.543 37.122C194.093 36.7207 194.943 36.52 196.091 36.52H197.603C197.556 35.7173 197.019 35.316 195.993 35.316C195.629 35.316 195.26 35.3767 194.887 35.498C194.513 35.61 194.196 35.7687 193.935 35.974L193.039 34.168C193.459 33.888 193.967 33.6733 194.565 33.524C195.171 33.3653 195.778 33.286 196.385 33.286ZM196.287 39.446C196.595 39.446 196.865 39.3713 197.099 39.222C197.332 39.0727 197.5 38.8533 197.603 38.564V37.906H196.455C195.68 37.906 195.293 38.1627 195.293 38.676C195.293 38.9093 195.381 39.096 195.559 39.236C195.736 39.376 195.979 39.446 196.287 39.446ZM206.769 41.126C205.929 41.126 205.178 40.958 204.515 40.622C203.852 40.286 203.334 39.8193 202.961 39.222C202.597 38.6247 202.415 37.948 202.415 37.192C202.415 36.436 202.597 35.764 202.961 35.176C203.334 34.5787 203.852 34.1167 204.515 33.79C205.178 33.454 205.929 33.286 206.769 33.286C207.628 33.286 208.37 33.4727 208.995 33.846C209.62 34.21 210.064 34.7187 210.325 35.372L208.267 36.422C207.922 35.7407 207.418 35.4 206.755 35.4C206.279 35.4 205.882 35.5587 205.565 35.876C205.257 36.1933 205.103 36.632 205.103 37.192C205.103 37.7613 205.257 38.2093 205.565 38.536C205.882 38.8533 206.279 39.012 206.755 39.012C207.418 39.012 207.922 38.6713 208.267 37.99L210.325 39.04C210.064 39.6933 209.62 40.2067 208.995 40.58C208.37 40.944 207.628 41.126 206.769 41.126ZM219.84 37.22C219.84 37.2387 219.826 37.458 219.798 37.878H214.282C214.394 38.27 214.609 38.5733 214.926 38.788C215.253 38.9933 215.659 39.096 216.144 39.096C216.508 39.096 216.821 39.0447 217.082 38.942C217.353 38.8393 217.624 38.6713 217.894 38.438L219.294 39.894C218.557 40.7153 217.479 41.126 216.06 41.126C215.174 41.126 214.394 40.958 213.722 40.622C213.05 40.286 212.528 39.8193 212.154 39.222C211.79 38.6247 211.608 37.948 211.608 37.192C211.608 36.4453 211.786 35.778 212.14 35.19C212.504 34.5927 213.004 34.126 213.638 33.79C214.273 33.454 214.987 33.286 215.78 33.286C216.536 33.286 217.222 33.4447 217.838 33.762C218.454 34.07 218.94 34.5227 219.294 35.12C219.658 35.708 219.84 36.408 219.84 37.22ZM215.794 35.176C215.384 35.176 215.038 35.2927 214.758 35.526C214.488 35.7593 214.315 36.0767 214.24 36.478H217.348C217.274 36.0767 217.096 35.7593 216.816 35.526C216.546 35.2927 216.205 35.176 215.794 35.176ZM226.681 33.286C227.372 33.286 227.997 33.4447 228.557 33.762C229.126 34.0793 229.574 34.5367 229.901 35.134C230.237 35.722 230.405 36.408 230.405 37.192C230.405 37.976 230.237 38.6667 229.901 39.264C229.574 39.8613 229.126 40.3233 228.557 40.65C227.997 40.9673 227.372 41.126 226.681 41.126C225.682 41.126 224.936 40.832 224.441 40.244V41H221.907V30.612H224.567V34.07C225.08 33.5473 225.785 33.286 226.681 33.286ZM226.121 39.012C226.588 39.012 226.97 38.8533 227.269 38.536C227.568 38.2093 227.717 37.7613 227.717 37.192C227.717 36.632 227.568 36.1933 227.269 35.876C226.97 35.5587 226.588 35.4 226.121 35.4C225.654 35.4 225.272 35.5587 224.973 35.876C224.674 36.1933 224.525 36.632 224.525 37.192C224.525 37.7613 224.674 38.2093 224.973 38.536C225.272 38.8533 225.654 39.012 226.121 39.012ZM236.289 41.126C235.477 41.126 234.745 40.958 234.091 40.622C233.438 40.286 232.925 39.8193 232.551 39.222C232.187 38.6247 232.005 37.948 232.005 37.192C232.005 36.4453 232.187 35.7733 232.551 35.176C232.925 34.5787 233.433 34.1167 234.077 33.79C234.731 33.454 235.468 33.286 236.289 33.286C237.111 33.286 237.848 33.454 238.501 33.79C239.155 34.1167 239.663 34.5787 240.027 35.176C240.391 35.764 240.573 36.436 240.573 37.192C240.573 37.948 240.391 38.6247 240.027 39.222C239.663 39.8193 239.155 40.286 238.501 40.622C237.848 40.958 237.111 41.126 236.289 41.126ZM236.289 39.012C236.756 39.012 237.139 38.8533 237.437 38.536C237.736 38.2093 237.885 37.7613 237.885 37.192C237.885 36.632 237.736 36.1933 237.437 35.876C237.139 35.5587 236.756 35.4 236.289 35.4C235.823 35.4 235.44 35.5587 235.141 35.876C234.843 36.1933 234.693 36.632 234.693 37.192C234.693 37.7613 234.843 38.2093 235.141 38.536C235.44 38.8533 235.823 39.012 236.289 39.012ZM246.454 41.126C245.642 41.126 244.909 40.958 244.256 40.622C243.602 40.286 243.089 39.8193 242.716 39.222C242.352 38.6247 242.17 37.948 242.17 37.192C242.17 36.4453 242.352 35.7733 242.716 35.176C243.089 34.5787 243.598 34.1167 244.242 33.79C244.895 33.454 245.632 33.286 246.454 33.286C247.275 33.286 248.012 33.454 248.666 33.79C249.319 34.1167 249.828 34.5787 250.192 35.176C250.556 35.764 250.738 36.436 250.738 37.192C250.738 37.948 250.556 38.6247 250.192 39.222C249.828 39.8193 249.319 40.286 248.666 40.622C248.012 40.958 247.275 41.126 246.454 41.126ZM246.454 39.012C246.92 39.012 247.303 38.8533 247.602 38.536C247.9 38.2093 248.05 37.7613 248.05 37.192C248.05 36.632 247.9 36.1933 247.602 35.876C247.303 35.5587 246.92 35.4 246.454 35.4C245.987 35.4 245.604 35.5587 245.306 35.876C245.007 36.1933 244.858 36.632 244.858 37.192C244.858 37.7613 245.007 38.2093 245.306 38.536C245.604 38.8533 245.987 39.012 246.454 39.012ZM256.254 38.34L255.47 39.138V41H252.81V30.612H255.47V36.058L258.186 33.412H261.336L258.186 36.66L261.602 41H258.382L256.254 38.34Z" fill="#E8F5FF"/>
<defs>
<filter id="filter0_d" x="0" y="0" width="292" height="83" filterUnits="userSpaceOnUse" color-interpolation-filters="sRGB">
<feFlood flood-opacity="0" result="BackgroundImageFix"/>
<feColorMatrix in="SourceAlpha" type="matrix" values="0 0 0 0 0 0 0 0 0 0 0 0 0 0 0 0 0 0 127 0"/>
<feOffset dy="7"/>
<feGaussianBlur stdDeviation="10"/>
<feColorMatrix type="matrix" values="0 0 0 0 0.215686 0 0 0 0 0.313726 0 0 0 0 0.698039 0 0 0 0.4 0"/>
<feBlend mode="normal" in2="BackgroundImageFix" result="effect1_dropShadow"/>
<feBlend mode="normal" in="SourceGraphic" in2="effect1_dropShadow" result="shape"/>
</filter>
</defs>
</svg>
