<svg width="720" height="551" viewBox="0 0 720 551" fill="none" xmlns="http://www.w3.org/2000/svg">
<path opacity="0.1" d="M47.7761 215.962H110.292V304.295H52.3472C52.1993 305.208 52.0515 306.115 51.8851 307.028H110.292V378.254C110.194 378.254 110.095 378.178 110.003 378.139C108.36 377.462 106.717 376.745 105.075 375.987C104.723 375.821 104.378 375.649 104.021 375.489C102.378 374.685 100.736 373.833 99.0928 372.935C98.5198 372.622 97.9469 372.296 97.3863 371.964C88.2662 366.689 79.9771 360.001 72.8061 352.13C72.5905 351.92 72.3933 351.69 72.19 351.492C71.192 350.368 70.2125 349.231 69.2638 348.069C68.9065 347.641 68.5615 347.207 68.2104 346.792C67.0892 345.374 66.0049 343.906 64.9577 342.431C64.7975 342.207 64.6496 341.99 64.4956 341.792C60.2055 335.638 56.6477 328.97 53.8996 321.933C53.8134 321.722 53.7333 321.492 53.6532 321.294C52.8031 319.059 52.033 316.792 51.3677 314.48C51.0843 313.516 50.8071 312.565 50.573 311.562C50.4867 311.275 50.419 310.981 50.345 310.694C46.8829 296.549 46.4824 281.85 46.4824 267.22C46.4824 265.517 46.4824 263.814 46.4824 262.111C46.5317 256.139 46.5995 250.172 46.6857 244.212C46.7186 242.68 46.7494 241.141 46.7781 239.595C46.8644 235.683 46.9876 231.762 47.1478 227.833C47.1847 226.747 47.234 225.655 47.2894 224.576C47.3141 223.95 47.3449 223.325 47.3819 222.699C47.4927 220.438 47.6242 218.193 47.7761 215.962Z" fill="#6C63FF"/>
<path opacity="0.1" d="M110.293 117.61H75.9976C81.575 108.571 87.6661 99.8835 94.2387 91.5943C99.3396 85.1064 104.711 78.7846 110.293 72.6926V117.61Z" fill="#6C63FF"/>
<path opacity="0.1" d="M110.292 120.33V213.229H47.9731C47.9731 212.961 48.0101 212.686 48.0347 212.418C48.0902 211.684 48.1456 210.956 48.2072 210.221C48.2688 209.366 48.3489 208.51 48.429 207.667C48.5091 206.824 48.5892 205.802 48.6878 204.876C48.7863 203.95 48.8664 203.012 48.965 202.086C49.0635 201.16 49.1621 200.234 49.273 199.314C49.3839 198.395 49.4825 197.463 49.6057 196.543C49.6981 195.783 49.7905 195.017 49.8952 194.251C50.0369 193.171 50.1847 192.092 50.3388 191.019C50.3388 190.853 50.388 190.694 50.4127 190.534C51.5386 182.682 53.0686 174.897 54.9961 167.214C57.0202 159.155 59.6041 151.259 62.7275 143.587C66.0463 135.548 69.9339 127.774 74.3584 120.33H110.292Z" fill="#6C63FF"/>
<path opacity="0.1" d="M125.226 215.962V304.295H258.76V215.962H125.226ZM125.226 307.029V382.891C125.99 383.05 126.742 383.21 127.499 383.344C128.516 383.548 129.538 383.733 130.58 383.893L131.196 383.982C131.602 384.053 132.015 384.11 132.428 384.161C133.456 384.315 134.485 384.429 135.508 384.532C135.988 384.583 136.487 384.621 136.974 384.666L138.163 384.755C138.81 384.806 139.451 384.845 140.091 384.87C140.486 384.87 140.88 384.902 141.28 384.915C141.681 384.928 141.896 384.915 142.217 384.915H143.381C143.911 384.915 144.441 384.915 144.964 384.915H145.642C146.172 384.915 146.701 384.915 147.225 384.864H147.256C147.626 384.864 147.989 384.864 148.359 384.819C148.463 384.825 148.568 384.825 148.673 384.819C148.981 384.819 149.289 384.819 149.585 384.781C149.654 384.775 149.724 384.775 149.794 384.781C150.478 384.736 151.168 384.678 151.864 384.615C152.56 384.551 153.219 384.474 153.915 384.398L155.314 384.219C161.028 383.389 166.679 382.143 172.224 380.489C184.687 376.888 196.866 371.85 209.323 368.165C225.414 363.408 243.205 361.064 258.754 366.856V307.029H125.226ZM258.76 117.61V0.0107641C244.142 -0.155948 229.563 1.61446 215.378 5.27896C181.564 14.0848 151.199 33.1844 125.226 57.5778V117.603H131.947V120.33H125.226V213.229H258.76V120.33H159.441V117.597L258.76 117.61ZM430.317 77.8843C421.951 77.5778 413.634 74.8383 406.106 70.5918C391.728 62.4884 380.232 49.9597 367.394 39.3977C340.719 17.3862 307.637 4.09761 273.699 0.80259V117.61H464.31L464.785 117.092L430.317 77.8843ZM447.683 74.6914L466.097 95.6429V69.1806C459.899 69.9916 454.503 71.8754 447.683 74.6659V74.6914ZM466.097 401.728V307.029H426.83C426.731 306.626 426.621 306.217 426.497 305.809C426.614 306.217 426.719 306.626 426.824 307.029H273.699V375.509C275.153 376.626 276.589 377.807 278.012 378.995C279.548 380.298 281.073 381.616 282.589 382.948L284.117 384.257C284.85 384.896 285.595 385.534 286.334 386.141C287.817 387.38 289.31 388.606 290.813 389.819C291.565 390.432 292.32 391.034 293.08 391.626C305.113 401.158 317.805 409.762 331.053 417.367C334.023 419.085 337.023 420.738 340.041 422.354C342.05 423.427 344.072 424.478 346.109 425.509C349.165 427.054 352.245 428.544 355.35 429.979C383.975 443.298 414.245 452.436 445.293 457.131C452.184 458.182 459.107 459.012 466.06 459.621V401.716H466.676L466.097 401.728ZM273.699 120.33V213.229H466.097V120.33H273.699ZM273.699 215.949V304.295H466.097V215.962L273.699 215.949ZM481.03 69.0529V98.6186L504.526 71.8817C496.739 70.5493 488.907 69.6063 481.03 69.0529ZM481.03 215.962V304.295H668.154V215.962H481.03ZM667.495 408.733L668.154 307.029H481.03V460.649C493.083 461.169 505.154 461.017 517.192 460.196H517.401C523.151 459.813 528.874 459.268 534.57 458.561H534.7C565.099 454.893 594.822 446.663 622.936 434.129L667.495 408.733ZM704.254 230.47C703.544 228.768 702.815 227.065 702.067 225.362C700.675 222.169 699.209 219.066 697.693 215.969H683.093V304.295H720C719.969 279.276 713.858 253.734 704.254 230.47ZM683.093 307.029V394.512C693.486 384.187 702.277 372.367 708.597 358.855C716.205 342.578 719.686 324.966 719.976 307.022L683.093 307.029ZM683.093 190.221V213.21H696.326C692.314 205.307 687.897 197.634 683.093 190.221ZM556.187 86.39C555.214 86.0005 554.235 85.611 553.255 85.2406C542.927 81.2841 532.373 77.9955 521.652 75.3939L485.687 116.301L484.985 117.086L485.447 117.603H613.449C595.62 104.887 576.399 94.4092 556.187 86.39ZM617.207 120.33H483.654L481.03 122.814V213.229H504.039H668.154V169.423C653.314 150.821 636.186 134.316 617.207 120.33Z" fill="#6C63FF"/>
<path opacity="0.1" d="M110.292 167.194V213.229H47.9731C47.9731 212.961 48.0101 212.686 48.0347 212.418C48.0902 211.684 48.1456 210.956 48.2072 210.221C48.2688 209.366 48.3489 208.51 48.429 207.667C48.5091 206.824 48.5892 205.802 48.6878 204.876C48.7863 203.95 48.8664 203.012 48.965 202.086C49.0635 201.16 49.1621 200.234 49.273 199.314C49.3839 198.395 49.4825 197.463 49.6057 196.543C49.6981 195.783 49.7905 195.017 49.8952 194.251C50.0369 193.171 50.1847 192.092 50.3388 191.019C50.3388 190.853 50.388 190.694 50.4127 190.534C51.5386 182.682 53.0686 174.897 54.9961 167.214L110.292 167.194Z" fill="#6C63FF"/>
<path opacity="0.1" d="M47.7761 215.962H110.292V304.295H52.3472C52.1993 305.208 52.0515 306.115 51.8851 307.028H110.292V378.254C110.194 378.254 110.095 378.178 110.003 378.139C108.36 377.462 106.717 376.745 105.075 375.987C104.723 375.821 104.378 375.649 104.021 375.489C102.378 374.685 100.736 373.833 99.0928 372.935C98.5198 372.622 97.9469 372.296 97.3863 371.964C88.2662 366.689 79.9771 360.001 72.8061 352.13C72.5905 351.92 72.3933 351.69 72.19 351.492C71.192 350.368 70.2125 349.231 69.2638 348.069C68.9065 347.641 68.5615 347.207 68.2104 346.792C67.0892 345.374 66.0049 343.906 64.9577 342.431C64.7975 342.207 64.6496 341.99 64.4956 341.792C60.2055 335.638 56.6477 328.97 53.8996 321.933C53.8134 321.722 53.7333 321.492 53.6532 321.294C52.8031 319.059 52.033 316.792 51.3677 314.48C51.0843 313.516 50.8071 312.565 50.573 311.562C50.4867 311.275 50.419 310.981 50.345 310.694C46.8829 296.549 46.4824 281.85 46.4824 267.22C46.4824 265.517 46.4824 263.814 46.4824 262.111C46.5317 256.139 46.5995 250.172 46.6857 244.212C46.7186 242.68 46.7494 241.141 46.7781 239.595C46.8644 235.683 46.9876 231.762 47.1478 227.833C47.1847 226.747 47.234 225.655 47.2894 224.576C47.3141 223.95 47.3449 223.325 47.3819 222.699C47.4927 220.438 47.6242 218.193 47.7761 215.962Z" fill="#6C63FF"/>
<path opacity="0.1" d="M172.23 133.638V213.229H125.22V133.638H131.922V106.69H159.435V133.638H172.23Z" fill="#6C63FF"/>
<path opacity="0.1" d="M172.224 215.956H125.22V304.289H172.224V215.956Z" fill="#6C63FF"/>
<path opacity="0.1" d="M125.226 307.028H172.23V380.464C166.686 382.118 161.035 383.363 155.32 384.187C154.852 384.257 154.39 384.314 153.922 384.365C153.232 384.448 152.548 384.525 151.864 384.589L149.8 384.761H149.591L148.679 384.812H148.365C147.995 384.812 147.632 384.857 147.262 384.864H147.231C146.701 384.864 146.178 384.902 145.648 384.915H144.97C144.447 384.915 143.923 384.915 143.387 384.915H142.229H141.286C140.886 384.915 140.492 384.915 140.091 384.864C139.459 384.838 138.818 384.8 138.169 384.749L136.98 384.659C136.487 384.621 135.995 384.57 135.508 384.519C134.473 384.425 133.446 384.304 132.428 384.155L131.196 383.976L130.58 383.887C129.551 383.727 128.528 383.548 127.499 383.344C126.735 383.203 125.984 383.044 125.226 382.878V307.028Z" fill="#6C63FF"/>
<path opacity="0.1" d="M466.09 124.238H427.329V213.222H466.09V124.238Z" fill="#6C63FF"/>
<path opacity="0.1" d="M466.096 215.956V304.295H273.699V266.192H376.178V288.669H427.328V215.956H466.096Z" fill="#6C63FF"/>
<path opacity="0.1" d="M466.706 401.747C466.503 401.747 466.299 401.747 466.09 401.709V459.659C459.145 459.067 452.225 458.239 445.329 457.175C414.27 452.482 383.989 443.348 355.35 430.036C347.082 426.17 338.983 421.958 331.053 417.399C317.808 409.79 305.119 401.186 293.086 391.658C290.055 389.257 287.069 386.803 284.128 384.295C282.089 382.545 280.069 380.757 278.011 379.027C276.594 377.833 275.159 376.651 273.699 375.528V307.028H426.823C426.712 306.62 426.614 306.217 426.503 305.809C426.62 306.217 426.731 306.62 426.829 307.028H466.096V401.703C466.299 401.709 466.503 401.728 466.706 401.747Z" fill="#6C63FF"/>
<path opacity="0.1" d="M567.19 117.61H541.932V109.474H553.248V85.2405C554.23 85.6151 555.207 85.9982 556.181 86.3899V109.474H567.183L567.19 117.61Z" fill="#6C63FF"/>
<path opacity="0.1" d="M628.049 213.229H504.039C504.051 213.232 504.063 213.232 504.076 213.229H504.02H481.029V124.244H487.547V190.017H517.327V151.064H541.938V120.33H567.196V151.083H591.794V190.036H628.055L628.049 213.229Z" fill="#6C63FF"/>
<path opacity="0.1" d="M481.029 215.962V304.295H628.055V215.962H481.029ZM667.944 408.267L668.153 338.344H628.055V307.054H481.029V460.649C493.082 461.168 505.154 461.017 517.191 460.195H517.401C523.15 459.812 528.873 459.267 534.57 458.561H534.699C565.098 454.893 594.821 446.663 622.935 434.129" fill="#6C63FF"/>
<path opacity="0.1" d="M685.68 307.028H719.975C719.68 324.966 716.205 342.584 708.597 358.855C702.276 372.373 693.485 384.193 683.093 394.519V338.325H685.68V307.028Z" fill="#6C63FF"/>
<path opacity="0.1" d="M720 304.295H685.68V230.47H704.254C713.858 253.733 719.969 279.276 720 304.295Z" fill="#6C63FF"/>
<path opacity="0.1" d="M466.097 148.976H445.33V176.875H466.097V148.976Z" fill="#6C63FF"/>
<path opacity="0.1" d="M466.097 206.805H445.33V213.229H466.097V206.805Z" fill="#6C63FF"/>
<path opacity="0.1" d="M466.097 215.956H445.33V234.698H466.097V215.956Z" fill="#6C63FF"/>
<path opacity="0.1" d="M466.097 264.634H445.33V292.533H466.097V264.634Z" fill="#6C63FF"/>
<path opacity="0.1" d="M466.097 322.462H445.33V350.361H466.097V322.462Z" fill="#6C63FF"/>
<path opacity="0.1" d="M466.097 401.703C466.3 401.703 466.503 401.703 466.713 401.747C466.509 401.747 466.306 401.747 466.097 401.709V408.19H445.33V380.291H466.097V401.703Z" fill="#6C63FF"/>
<path opacity="0.1" d="M466.097 438.114V459.659C459.148 459.067 452.225 458.239 445.33 457.175V438.114H466.097Z" fill="#6C63FF"/>
<path opacity="0.1" d="M362.699 302.245H273.699V304.295H362.699V302.245Z" fill="#6C63FF"/>
<path opacity="0.1" d="M362.699 307.022H273.699V314.876H362.699V307.022Z" fill="#6C63FF"/>
<path opacity="0.1" d="M362.699 340.623H273.699V353.254H362.699V340.623Z" fill="#6C63FF"/>
<path opacity="0.1" d="M362.699 379.001V391.632H293.086C290.055 389.24 287.069 386.783 284.129 384.263C282.083 382.52 280.063 380.732 278.011 379.001H362.699Z" fill="#6C63FF"/>
<path opacity="0.1" d="M362.699 417.373V430.036H355.35C347.083 426.17 338.984 421.958 331.053 417.399L362.699 417.373Z" fill="#6C63FF"/>
<path opacity="0.1" d="M534.711 224.519H517.191V242.68H534.711V224.519Z" fill="#6C63FF"/>
<path opacity="0.1" d="M155.363 139.902H137.842V158.063H155.363V139.902Z" fill="#6C63FF"/>
<path opacity="0.1" d="M155.363 182.086H137.842V200.247H155.363V182.086Z" fill="#6C63FF"/>
<path opacity="0.1" d="M155.363 224.27H137.842V242.431H155.363V224.27Z" fill="#6C63FF"/>
<path opacity="0.1" d="M155.363 266.447H137.842V284.608H155.363V266.447Z" fill="#6C63FF"/>
<path opacity="0.1" d="M155.363 308.631H137.842V326.792H155.363V308.631Z" fill="#6C63FF"/>
<path opacity="0.1" d="M155.363 350.815H137.842V368.976H155.363V350.815Z" fill="#6C63FF"/>
<path opacity="0.1" d="M601.596 224.519H584.076V242.68H601.596V224.519Z" fill="#6C63FF"/>
<path opacity="0.1" d="M534.711 269.314H517.191V287.475H534.711V269.314Z" fill="#6C63FF"/>
<path opacity="0.1" d="M601.596 269.314H584.076V287.475H601.596V269.314Z" fill="#6C63FF"/>
<path opacity="0.1" d="M534.711 314.104H517.191V332.265H534.711V314.104Z" fill="#6C63FF"/>
<path opacity="0.1" d="M601.596 314.104H584.076V332.265H601.596V314.104Z" fill="#6C63FF"/>
<path opacity="0.1" d="M534.711 358.899H517.191V377.06H534.711V358.899Z" fill="#6C63FF"/>
<path opacity="0.1" d="M601.596 358.899H584.076V377.06H601.596V358.899Z" fill="#6C63FF"/>
<path opacity="0.1" d="M534.711 403.695H517.191V421.856H534.711V403.695Z" fill="#6C63FF"/>
<path opacity="0.1" d="M601.596 403.695H584.076V421.856H601.596V403.695Z" fill="#6C63FF"/>
<path opacity="0.1" d="M517.191 460.196V448.484H534.705V458.529L517.191 460.196Z" fill="#6C63FF"/>
<path opacity="0.1" d="M50.3389 190.515V200.904H110.292V190.515H50.3389ZM56.3084 200.253H51.38V191.173H56.3084V200.253ZM62.2778 200.253H57.3495V191.173H62.2778V200.253ZM68.235 200.253H63.3066V191.173H68.235V200.253ZM74.2045 200.253H69.2761V191.173H74.2045V200.253ZM80.1678 200.253H75.2395V191.173H80.1678V200.253ZM86.1373 200.253H81.2089V191.173H86.1373V200.253ZM92.1068 200.253H87.1784V191.173H92.1068V200.253ZM98.0701 200.253H93.1418V191.173H98.0701V200.253ZM104.033 200.253H99.1051V191.173H104.033V200.253ZM110.003 200.253H105.075V191.173H110.003V200.253Z" fill="#6C63FF"/>
<path opacity="0.1" d="M50.3389 220.758V231.147H110.292V220.758H50.3389ZM56.3084 230.496H51.38V221.415H56.3084V230.496ZM62.2778 230.496H57.3495V221.415H62.2778V230.496ZM68.235 230.496H63.3066V221.415H68.235V230.496ZM74.2045 230.496H69.2761V221.415H74.2045V230.496ZM80.1678 230.496H75.2395V221.415H80.1678V230.496ZM86.1373 230.496H81.2089V221.415H86.1373V230.496ZM92.1068 230.496H87.1784V221.415H92.1068V230.496ZM98.0701 230.496H93.1418V221.415H98.0701V230.496ZM104.033 230.496H99.1051V221.415H104.033V230.496ZM110.003 230.496H105.075V221.415H110.003V230.496Z" fill="#6C63FF"/>
<path opacity="0.1" d="M50.3389 251.007V261.39H110.292V251.007H50.3389ZM56.3084 260.732H51.38V251.652H56.3084V260.732ZM62.2778 260.732H57.3495V251.652H62.2778V260.732ZM68.235 260.732H63.3066V251.652H68.235V260.732ZM74.2045 260.732H69.2761V251.652H74.2045V260.732ZM80.1678 260.732H75.2395V251.652H80.1678V260.732ZM86.1373 260.732H81.2089V251.652H86.1373V260.732ZM92.1068 260.732H87.1784V251.652H92.1068V260.732ZM98.0701 260.732H93.1418V251.652H98.0701V260.732ZM104.033 260.732H99.1051V251.652H104.033V260.732ZM110.003 260.732H105.075V251.652H110.003V260.732Z" fill="#6C63FF"/>
<path opacity="0.1" d="M50.3389 281.249V291.632H110.292V281.249H50.3389ZM56.3084 290.981H51.38V281.888H56.3084V290.981ZM62.2778 290.981H57.3495V281.888H62.2778V290.981ZM68.235 290.981H63.3066V281.888H68.235V290.981ZM74.2045 290.981H69.2761V281.888H74.2045V290.981ZM80.1678 290.981H75.2395V281.888H80.1678V290.981ZM86.1373 290.981H81.2089V281.888H86.1373V290.981ZM92.1068 290.981H87.1784V281.888H92.1068V290.981ZM98.0701 290.981H93.1418V281.888H98.0701V290.981ZM104.033 290.981H99.1051V281.888H104.033V290.981ZM110.003 290.981H105.075V281.888H110.003V290.981Z" fill="#6C63FF"/>
<path opacity="0.1" d="M50.6284 311.479C50.8625 312.462 51.1397 313.433 51.4231 314.397V312.137H56.3515V321.211H53.7086C53.7826 321.428 53.8627 321.651 53.9489 321.849H110.317V311.479H50.6284ZM62.3333 321.211H57.4049V312.137H62.3333V321.211ZM68.2905 321.211H63.3621V312.137H68.2905V321.211ZM74.26 321.211H69.3316V312.137H74.26V321.211ZM80.2233 321.211H75.2949V312.137H80.2233V321.211ZM86.1928 321.211H81.2644V312.137H86.1928V321.211ZM92.1623 321.211H87.2339V312.137H92.1623V321.211ZM98.1256 321.211H93.1972V312.137H98.1256V321.211ZM104.089 321.211H99.1605V312.137H104.089V321.211ZM110.058 321.211H105.13V312.137H110.058V321.211Z" fill="#6C63FF"/>
<path opacity="0.1" d="M64.5146 341.722C64.6748 341.926 64.8227 342.156 64.9767 342.36H68.2356V346.722L69.289 347.999V342.335H74.2174V351.492H72.1906C72.3877 351.703 72.5787 351.926 72.8066 352.13H110.281V341.722H64.5146ZM80.1992 351.492H75.2708V342.373H80.1992V351.492ZM86.1687 351.492H81.2403V342.373H86.1687V351.492ZM92.1382 351.492H87.2098V342.373H92.1382V351.492ZM98.1015 351.492H93.1731V342.373H98.1015V351.492ZM104.065 351.492H99.1364V342.373H104.065V351.492ZM110.034 351.492H105.106V342.373H110.034V351.492Z" fill="#6C63FF"/>
<path opacity="0.1" d="M97.4048 371.964C97.9715 372.296 98.5445 372.603 99.1174 372.929V372.609H104.046V375.489C104.403 375.649 104.742 375.821 105.093 375.987V372.609H110.021V378.139C110.115 378.183 110.212 378.22 110.311 378.248V371.964H97.4048Z" fill="#6C63FF"/>
<path opacity="0.1" d="M466.09 401.703H466.706H466.09ZM426.497 305.809C426.614 306.217 426.719 306.626 426.824 307.028C426.731 306.626 426.62 306.217 426.497 305.809ZM131.947 117.61V120.33H159.466V117.597L131.947 117.61ZM466.097 401.703H466.713H466.097ZM426.497 305.809C426.614 306.217 426.719 306.626 426.824 307.028C426.731 306.626 426.62 306.217 426.497 305.809ZM466.09 401.703H466.706H466.09ZM426.497 305.809C426.614 306.217 426.719 306.626 426.824 307.028C426.731 306.626 426.62 306.217 426.497 305.809Z" fill="#6C63FF"/>
<path opacity="0.1" d="M542.468 551C575.62 551 602.495 546.526 602.495 541.006C602.495 535.487 575.62 531.013 542.468 531.013C509.315 531.013 482.44 535.487 482.44 541.006C482.44 546.526 509.315 551 542.468 551Z" fill="#6C63FF"/>
<path opacity="0.1" d="M271.74 541.007C304.892 541.007 331.768 536.532 331.768 531.013C331.768 525.494 304.892 521.019 271.74 521.019C238.588 521.019 211.712 525.494 211.712 531.013C211.712 536.532 238.588 541.007 271.74 541.007Z" fill="#6C63FF"/>
<path d="M340.848 266.76C340.833 266.697 340.801 266.639 340.756 266.594C339.838 265.655 328.133 248.497 328.133 248.497C328.133 248.497 327.517 246.581 326.519 244.091C326.839 243.662 327.079 243.174 327.227 242.654C327.281 242.434 327.32 242.21 327.344 241.984C327.344 241.913 327.394 241.856 327.412 241.786C327.626 240.92 327.605 240.009 327.35 239.155C327.282 239.374 327.198 239.587 327.098 239.793C326.866 239.05 326.556 238.334 326.174 237.661C324.621 234.889 322.404 232.552 320.771 229.851C318.299 225.654 317.317 220.695 317.993 215.828C317.993 216.077 317.993 216.332 317.993 216.581C318.054 215.616 318.178 214.656 318.362 213.708C318.62 212.628 318.964 211.573 319.391 210.553C320.857 207.073 323.229 204.04 324.671 200.547C325.154 199.369 325.522 198.143 325.767 196.888C326.275 194.792 326.46 192.626 326.316 190.47C326.316 190.981 326.235 191.492 326.162 191.997C326.006 186.813 323.986 181.878 320.5 178.159C315.467 172.916 308.241 170.879 301.329 169.806C298.424 169.455 295.65 168.357 293.258 166.613C290.603 164.832 287.172 164.404 284.067 164.793C280.499 165.193 277.183 166.893 274.709 169.589C271.426 173.331 270.003 178.631 266.171 181.786C263.848 183.701 260.904 184.595 258.199 185.898C255.495 187.201 252.938 189.091 252.07 191.888C252.07 191.888 252.07 191.85 252.07 191.83V191.99L252.033 192.092C251.133 195.4 252.871 198.765 253.776 202.067C254.719 205.483 254.78 209.091 254.83 212.622C254.897 216.939 254.959 221.262 254.891 225.585C254.86 227.284 254.805 229.002 254.682 230.694C253.224 231.151 251.807 231.741 250.449 232.456C249.07 233.389 243.907 239.168 243.907 239.168L233.81 279.155L233.946 279.314L233.81 279.857L234.321 279.736C235.751 281.332 240.02 285.879 244.628 288.714L245.059 296.556C245.059 296.556 245.577 304.423 252.556 307.673C252.717 310.4 253.216 321.473 250.905 325.86C249.306 329.065 248.553 332.652 248.725 336.256C248.725 336.256 249.532 342.91 248.614 346.409C248.077 348.748 248.037 351.179 248.497 353.535C248.497 353.535 248.497 354.308 248.497 355.636C248.497 362.718 248.577 385.413 248.497 387.98C248.38 391.013 248.497 435.872 248.497 435.872C248.497 435.872 247.924 458.293 246.088 464.365C244.252 470.438 244.714 490.547 244.714 490.547C244.714 490.547 243.562 514.499 247.634 519.225C247.634 519.436 247.597 519.653 247.591 519.863C247.591 519.959 247.591 520.068 247.591 520.164C247.542 521.984 247.881 523.918 249.39 524.512C252.47 525.738 256.542 529.417 257.312 530.47C258.082 531.524 262.561 534.148 268.401 533.446C272.06 533.02 275.741 532.845 279.422 532.922C279.422 532.922 281.726 532.488 280.981 529.519C280.5 527.667 278.701 524.819 277.42 522.948C277.654 523.012 277.882 523.063 278.098 523.107L278.319 523.152H278.492C278.586 523.158 278.681 523.158 278.775 523.152H278.898C279.013 523.162 279.129 523.162 279.243 523.152C280.79 522.999 286.556 525.783 287.585 527.622C288.614 529.461 292.242 530.86 294.977 531.211C296.604 531.415 300.706 531.07 304.15 530.611C305.884 530.425 307.602 530.1 309.288 529.64C310.101 529.321 310.274 528.299 310.04 527.15C309.763 525.69 309.01 524.373 307.908 523.42C306.91 522.686 305.592 520.751 304.618 519.167L304.36 518.74C306.078 517.041 309.183 511.485 310.126 510.336C311.272 508.938 308.278 457.795 308.278 457.795V432.156L312.867 407.89L316.077 395.049L318.831 375.662C318.831 375.662 323.648 353.018 322.163 350.796C322.163 350.751 320.931 327.437 319.638 321.837C319.077 319.34 319.219 313.721 319.551 308.254C319.899 307.897 320.141 307.444 320.25 306.949C320.36 306.453 320.331 305.936 320.167 305.457C320.075 305.13 319.956 304.812 319.81 304.506C319.81 304.41 319.81 304.308 319.81 304.212C322.471 302.943 325.252 301.963 328.108 301.288C332.698 300.355 331.552 297.903 331.552 297.903C331.552 297.903 332.587 295.802 333.271 294.519C333.954 293.235 333.388 281.907 333.271 280.975C333.228 280.598 332.944 278.516 332.618 276.154C334.09 275.068 336.006 273.721 338.094 272.443C342.068 270.004 341.175 267.431 340.848 266.76ZM280.968 428.657C280.968 428.657 277.525 437.763 278.905 440.093C280.285 442.424 278.677 451.077 278.677 451.077L277.525 463.918C277.525 463.918 274.315 487.737 275.461 493.337C276.36 497.731 276.693 510.853 276.798 516.326C276.719 516.358 276.643 516.396 276.57 516.441L276.416 516.524C276.946 514.372 276.724 510.017 274.093 501.256L273.872 465.068C273.872 465.068 273.465 423.267 276.65 418.593C279.835 413.918 280.962 405.981 280.962 405.981C280.962 405.981 280.272 417.431 279.823 420.464C279.373 423.497 280.968 428.657 280.968 428.657ZM274.555 518.605C274.525 518.682 274.488 518.759 274.463 518.829L274.29 518.599C274.378 518.608 274.467 518.61 274.555 518.605Z" fill="url(#paint0_linear)"/>
<path d="M309.676 532.948C307.896 533.657 298.242 534.864 295.544 534.525C292.846 534.187 289.273 532.769 288.256 530.917C287.24 529.065 281.541 526.268 280.014 526.447C279.387 526.467 278.763 526.376 278.166 526.179C277.111 525.848 276.082 525.438 275.085 524.953C274.946 524.148 274.969 523.322 275.153 522.526C275.189 522.366 275.234 522.208 275.289 522.054C275.648 521.006 276.392 520.148 277.358 519.666L277.58 519.557C278.007 519.366 278.454 519.224 278.911 519.136C283.753 518.171 303.731 520.106 303.731 520.106C303.731 520.106 304.292 521.147 305.062 522.437C306.023 524.033 307.329 525.981 308.315 526.715C309.407 527.683 310.148 529.007 310.416 530.47C310.65 531.6 310.477 532.635 309.676 532.948Z" fill="white"/>
<path opacity="0.1" d="M309.676 532.948C307.895 533.656 298.248 534.863 295.55 534.525C292.852 534.187 289.278 532.762 288.256 530.917C287.233 529.072 281.547 526.268 280.019 526.447C278.492 526.626 275.091 524.953 275.091 524.953C275.091 524.953 274.561 522.398 276.101 520.655L279.181 522.922C279.181 522.922 287.424 525.572 288.952 528.031C290.48 530.489 293.264 531.862 297.287 532.111C300.293 532.315 307.199 531.102 310.433 530.496C310.649 531.6 310.483 532.635 309.676 532.948Z" fill="black"/>
<path d="M280.186 536.204C276.552 536.131 272.918 536.308 269.307 536.734C263.522 537.437 259.105 534.819 258.335 533.739C257.565 532.66 253.579 529.014 250.517 527.737C249.02 527.137 248.669 525.183 248.737 523.356C248.737 523.261 248.737 523.152 248.737 523.056C248.794 521.899 248.959 520.751 249.23 519.627L273.2 519.097L275.276 522.015L275.597 522.462L276.859 524.244C276.859 524.244 277.432 525.023 278.184 526.16C279.453 528.075 281.227 530.904 281.702 532.775C282.459 535.77 280.186 536.204 280.186 536.204Z" fill="white"/>
<path opacity="0.1" d="M280.186 536.204C276.552 536.131 272.918 536.308 269.307 536.734C263.528 537.437 259.105 534.819 258.341 533.74C257.577 532.66 253.579 528.982 250.517 527.75C249.02 527.15 248.669 525.195 248.737 523.369C250.449 523.784 254.047 524.844 255.458 526.69C257.306 529.155 260.614 533.299 265.315 533.561C269.11 533.771 278.35 533.069 281.739 532.788C282.465 535.77 280.186 536.204 280.186 536.204Z" fill="black"/>
<path opacity="0.1" d="M277.333 519.64C277.056 521.773 276.2 522.348 275.584 522.475C275.433 522.506 275.278 522.506 275.128 522.475C275.047 522.469 274.966 522.456 274.888 522.437C274.888 522.437 253.363 527.367 249.014 523.376C248.903 523.273 248.8 523.162 248.706 523.044C248.762 521.887 248.927 520.738 249.198 519.614L273.169 519.084L275.245 522.003C275.604 520.955 276.348 520.097 277.315 519.614L277.333 519.64Z" fill="black"/>
<path opacity="0.1" d="M305.055 522.411C304.575 522.96 304.174 523.273 303.922 523.165C302.788 522.692 293.498 521.051 290.548 522.462C287.597 523.874 277.611 522.692 277.611 522.692C277.611 522.692 277.611 521.466 277.555 519.499C277.982 519.308 278.429 519.167 278.886 519.078C283.728 518.114 303.706 520.049 303.706 520.049C303.706 520.049 304.292 521.121 305.055 522.411Z" fill="black"/>
<path d="M319.115 377.967L316.392 397.469L313.225 410.393L308.691 434.825V460.687C308.691 460.687 311.636 512.143 310.502 513.548C309.369 514.953 305.063 522.954 303.929 522.488C302.795 522.022 293.505 520.374 290.555 521.779C287.604 523.184 277.618 522.015 277.618 522.015C277.618 522.015 277.39 502.047 276.256 496.409C275.123 490.77 278.295 466.805 278.295 466.805L279.429 453.886C279.429 453.886 281.018 445.189 279.657 442.839C278.295 440.489 281.696 431.345 281.696 431.345C281.696 431.345 280.113 426.166 280.568 423.114C281.024 420.061 281.696 408.548 281.696 408.548C281.696 408.548 280.568 416.543 277.42 421.236C274.272 425.93 274.673 467.992 274.673 467.992L274.895 504.391C280.568 523.663 274.895 521.779 274.895 521.779C274.895 521.779 253.37 526.715 249.021 522.718C244.671 518.72 245.916 493.561 245.916 493.561C245.916 493.561 245.466 473.356 247.277 467.252C249.088 461.147 249.661 438.586 249.661 438.586C249.661 438.586 249.544 393.471 249.661 390.425C249.748 387.871 249.661 365.004 249.661 357.858C249.661 356.53 249.661 355.745 249.661 355.745L252.261 349.053L283.063 345.055H297.799C297.799 345.055 319.977 350.457 322.269 352.788C322.318 352.827 322.359 352.874 322.392 352.929C323.877 355.183 319.115 377.967 319.115 377.967Z" fill="#6C63FF"/>
<path opacity="0.1" d="M281.713 480.406C281.713 480.406 288.49 497.322 291.687 498.497C294.884 499.672 281.713 480.406 281.713 480.406Z" fill="black"/>
<path opacity="0.1" d="M284.221 505.311C284.221 505.311 307.101 506.486 306.873 509.072C306.645 511.658 284.221 505.311 284.221 505.311Z" fill="black"/>
<path opacity="0.1" d="M253.61 498.548C254.515 499.436 271.062 501.102 269.701 502.724C268.34 504.346 254.971 507.501 254.971 507.501L253.61 498.548Z" fill="black"/>
<path opacity="0.1" d="M250.893 469.365C250.893 470.068 254.294 491.92 255.205 492.858C256.117 493.797 263.59 494.736 263.59 494.736L250.893 469.365Z" fill="black"/>
<path d="M275.566 170.681C272.319 174.442 270.914 179.774 267.132 182.954C264.834 184.87 261.926 185.783 259.253 187.086C256.579 188.389 253.93 190.374 253.135 193.325C252.248 196.645 253.961 200.036 254.86 203.357C255.79 206.792 255.846 210.381 255.901 213.976C255.963 218.325 256.031 222.673 255.957 227.022C255.846 233.797 255.304 240.885 251.835 246.626C264.36 250.758 277.679 251.32 290.813 251.85C293.337 252.036 295.872 251.97 298.384 251.652C300.56 251.202 302.713 250.637 304.834 249.959C309.027 248.809 313.348 248.236 317.685 248.254C319.576 248.254 321.504 248.376 323.328 247.865C325.151 247.354 326.907 246.045 327.4 244.155C327.837 242.456 327.197 240.649 326.359 239.123C324.831 236.339 322.662 234.014 321.024 231.268C319.351 228.368 318.358 225.101 318.126 221.73C317.894 218.36 318.429 214.98 319.687 211.862C321.141 208.357 323.482 205.304 324.911 201.792C326.375 198.021 326.764 193.894 326.032 189.901C325.301 185.907 323.479 182.215 320.783 179.263C315.812 173.989 308.678 171.945 301.852 170.86C298.978 170.508 296.236 169.41 293.881 167.667C291.262 165.879 287.868 165.445 284.8 165.841C281.261 166.252 277.983 167.97 275.566 170.681Z" fill="#3F3D56"/>
<g opacity="0.1">
<path opacity="0.1" d="M319.878 208.178C318.621 211.255 318.083 214.596 318.307 217.929C318.445 215.545 318.976 213.204 319.878 211.007C321.325 207.501 323.666 204.449 325.095 200.936C326.264 198.004 326.755 194.829 326.531 191.664C326.404 193.882 325.919 196.063 325.095 198.114C323.666 201.626 321.325 204.672 319.878 208.178Z" fill="black"/>
<path opacity="0.1" d="M256.086 213.108C256.123 215.611 256.16 218.12 256.166 220.624C256.166 217.175 256.135 213.733 256.086 210.291C256.037 206.722 255.975 203.108 255.045 199.666C254.429 197.482 253.517 195.266 253.197 193.063C252.648 196.192 254.207 199.366 255.045 202.488C255.975 205.898 256.037 209.538 256.086 213.108Z" fill="black"/>
<path opacity="0.1" d="M323.537 244.212C321.689 244.73 319.792 244.615 317.9 244.602C313.567 244.573 309.248 245.136 305.056 246.275C302.935 246.95 300.782 247.513 298.606 247.961C296.092 248.284 293.555 248.353 291.028 248.165C278.338 247.648 265.469 247.092 253.314 243.331C252.953 244.166 252.542 244.977 252.082 245.758C264.606 249.883 277.925 250.451 291.053 250.981C293.579 251.169 296.117 251.1 298.63 250.777C300.799 250.333 302.944 249.772 305.056 249.097C309.239 247.954 313.549 247.385 317.876 247.405C319.767 247.405 321.689 247.527 323.513 247.009C325.336 246.492 327.092 245.196 327.585 243.306C327.792 242.43 327.771 241.513 327.523 240.649C326.975 242.437 325.281 243.682 323.537 244.212Z" fill="black"/>
</g>
<path d="M305.29 236.645C304.834 237.705 302.912 246.862 302.456 247.801C302 248.74 299.511 263.765 299.283 264.608C299.055 265.451 282.878 261.083 282.878 261.083L273.138 252.622L263.128 242.297C263.128 242.297 262.832 232.98 270.206 229.991C270.707 229.787 271.222 229.621 271.746 229.493C280.691 227.265 279.792 199.072 279.792 199.072L298.15 207.29C298.15 207.29 294.749 223.74 294.866 226.913C294.897 227.98 295.704 228.644 296.757 229.046C298.386 229.527 300.082 229.717 301.772 229.608C301.772 229.608 305.746 235.592 305.29 236.645Z" fill="#FBBEBE"/>
<path d="M338.156 267.539L340.762 268.248C340.762 268.248 342.69 271.288 338.156 274.117C335.277 275.929 332.514 277.932 329.883 280.113L316.484 284.34L313.902 275.943L326.371 266.134L338.156 267.539Z" fill="#6C63FF"/>
<path opacity="0.1" d="M338.156 267.539L340.762 268.248C340.762 268.248 342.69 271.288 338.156 274.117C335.277 275.929 332.514 277.932 329.883 280.113L316.484 284.34L313.902 275.943L326.371 266.134L338.156 267.539Z" fill="black"/>
<path d="M240.371 275.649L235.159 280.936C235.159 280.936 244.56 292.214 251.792 292.916C259.025 293.618 263.688 284.34 263.688 284.34L257.429 274.123L240.371 275.649Z" fill="#6C63FF"/>
<path opacity="0.1" d="M240.371 275.649L235.159 280.936C235.159 280.936 244.56 292.214 251.792 292.916C259.025 293.618 263.688 284.34 263.688 284.34L257.429 274.123L240.371 275.649Z" fill="black"/>
<path opacity="0.1" d="M289.876 217.494C299.889 217.494 308.007 209.08 308.007 198.701C308.007 188.322 299.889 179.908 289.876 179.908C279.863 179.908 271.746 188.322 271.746 198.701C271.746 209.08 279.863 217.494 289.876 217.494Z" fill="black"/>
<path d="M289.876 216.083C299.889 216.083 308.007 207.669 308.007 197.29C308.007 186.911 299.889 178.497 289.876 178.497C279.863 178.497 271.746 186.911 271.746 197.29C271.746 207.669 279.863 216.083 289.876 216.083Z" fill="#FBBEBE"/>
<path opacity="0.1" d="M322.404 355.061C318.276 355.551 314.209 356.495 310.274 357.878C303.498 360.215 250.395 357.916 249.655 357.878C249.655 356.549 249.655 355.764 249.655 355.764L252.255 349.072L283.057 345.074H297.793C297.793 345.074 319.971 350.477 322.262 352.807C322.355 354.212 322.404 355.061 322.404 355.061Z" fill="black"/>
<path opacity="0.1" d="M305.29 236.645C304.834 237.705 302.912 246.862 302.456 247.801C302 248.74 299.511 263.765 299.283 264.608C299.055 265.451 282.878 261.083 282.878 261.083L273.138 252.622L263.128 242.296C263.128 242.296 262.832 232.98 270.206 229.991L288.515 251.811L296.757 229.046C298.386 229.526 300.082 229.716 301.772 229.608C301.772 229.608 305.746 235.591 305.29 236.645Z" fill="black"/>
<path d="M288.515 252.514L269.775 230.164C268.678 229.438 267.424 229.006 266.126 228.907C264.828 228.808 263.527 229.044 262.339 229.596C258.144 231.479 252.932 233.005 251.571 233.944C250.209 234.883 245.108 240.694 245.108 240.694L260.3 281.888L253.61 309.021C253.61 309.021 254.632 322.884 252.027 327.935C250.44 331.165 249.697 334.769 249.87 338.389C249.87 338.389 250.665 345.087 249.76 348.606C249.23 350.958 249.19 353.401 249.642 355.77C249.642 355.77 303.479 358.12 310.274 355.77C314.208 354.384 318.275 353.44 322.404 352.954C322.404 352.954 321.172 329.455 319.94 323.816C318.707 318.178 320.962 296.684 320.962 296.684L319.49 273.657L328.324 250.03C328.324 250.03 323.537 234.883 318.547 233.357C318.547 233.357 309.485 231.122 307.557 230.068C305.629 229.014 299.961 228.069 299.961 228.069L296.986 229.104L288.515 252.514Z" fill="#6C63FF"/>
<path opacity="0.1" d="M314.661 272.879L275.227 270.1C274.229 270.029 273.365 270.811 273.297 271.845L269.063 336.383C268.996 337.418 269.75 338.313 270.748 338.384L310.182 341.163C311.18 341.234 312.044 340.452 312.112 339.417L316.346 274.88C316.413 273.845 315.659 272.949 314.661 272.879Z" fill="black"/>
<path d="M316.019 271.478L276.585 268.698C275.587 268.628 274.723 269.409 274.655 270.444L270.421 334.982C270.353 336.016 271.107 336.912 272.105 336.982L311.54 339.762C312.538 339.832 313.402 339.05 313.47 338.016L317.703 273.478C317.771 272.443 317.017 271.548 316.019 271.478Z" fill="#3F3D56"/>
<path d="M314.718 276.536L277.213 273.893L273.359 332.646L310.864 335.289L314.718 276.536Z" fill="white"/>
<path opacity="0.1" d="M311.355 291.533L280.719 289.31L280.122 298.16L310.758 300.383L311.355 291.533Z" fill="black"/>
<path opacity="0.1" d="M310.247 326.705L305.385 326.362L305.082 330.974L309.944 331.317L310.247 326.705Z" fill="black"/>
<path opacity="0.1" d="M305.451 315.572L280.565 313.818L280.262 318.431L305.149 320.185L305.451 315.572Z" fill="black"/>
<path d="M310.076 274.34L284.163 272.513L283.698 279.604L309.611 281.43L310.076 274.34Z" fill="#3F3D56"/>
<path opacity="0.1" d="M310.076 274.34L284.163 272.513L283.698 279.604L309.611 281.43L310.076 274.34Z" fill="black"/>
<path opacity="0.1" d="M290.782 353.765C290.782 353.765 290.554 388.542 281.713 408.51C281.713 408.51 292.371 382.194 292.371 381.141C292.371 380.087 298.26 369.04 296.683 365.751C295.106 362.462 290.782 353.765 290.782 353.765Z" fill="black"/>
<path opacity="0.1" d="M291.262 192.59C290.924 189.512 291.651 186.41 293.314 183.836C293.116 186.416 293.82 188.983 295.297 191.07C296.774 193.157 298.926 194.623 301.359 195.202C301.152 195.015 301.004 194.768 300.934 194.492C300.865 194.216 300.878 193.925 300.971 193.657C302.234 195.138 303.201 196.894 304.631 198.197C306.06 199.5 308.204 200.279 309.886 199.353C312.171 198.076 312.196 194.71 311.604 192.092C310.335 186.517 307.731 181.362 304.033 177.105C303.11 175.818 301.913 174.77 300.534 174.044C299.155 173.317 297.633 172.931 296.086 172.916C292.587 172.635 288.952 172.954 285.817 174.583C284.052 175.581 282.399 176.778 280.888 178.152L272.264 185.445C271.434 186.064 270.723 186.84 270.169 187.731C269.799 188.476 269.577 189.29 269.516 190.125C269.296 192.514 269.722 194.918 270.747 197.07C271.772 199.221 273.355 201.033 275.319 202.303C275.278 200.415 275.778 198.558 276.758 196.966C277.738 195.374 279.152 194.12 280.82 193.363C281.082 193.59 281.293 193.871 281.441 194.19C281.589 194.508 281.669 194.855 281.677 195.208L283.494 191.85C283.764 191.238 284.19 190.715 284.726 190.336C285.847 189.698 287.246 190.451 288.201 191.352C289.156 192.252 290.086 193.376 291.367 193.516L291.416 188.516" fill="black"/>
<path d="M291.263 191.888C290.923 188.808 291.65 185.703 293.314 183.127C292.76 188.235 296.474 193.51 301.366 194.493C301.158 194.308 301.009 194.061 300.94 193.786C300.871 193.512 300.884 193.221 300.978 192.954C302.24 194.436 303.208 196.185 304.637 197.494C306.066 198.804 308.21 199.576 309.892 198.644C312.177 197.367 312.202 194.002 311.611 191.39C310.341 185.814 307.738 180.66 304.039 176.402C302.892 174.953 301.446 173.787 299.807 172.993C298.621 172.538 297.374 172.275 296.111 172.213C292.612 171.932 288.977 172.245 285.841 173.874C284.078 174.876 282.425 176.075 280.913 177.45L272.288 184.742C271.457 185.36 270.746 186.136 270.194 187.028C269.823 187.773 269.601 188.587 269.541 189.423C269.321 191.81 269.747 194.214 270.773 196.364C271.798 198.514 273.381 200.325 275.344 201.594C275.304 199.707 275.805 197.85 276.785 196.258C277.764 194.667 279.177 193.412 280.845 192.654C281.106 192.882 281.317 193.164 281.464 193.482C281.612 193.8 281.693 194.147 281.701 194.5L283.513 191.153C283.781 190.541 284.208 190.018 284.745 189.64C285.866 189.002 287.264 189.755 288.219 190.655C289.174 191.556 290.104 192.673 291.386 192.82L291.435 187.814" fill="#3F3D56"/>
<path d="M299.85 310.425C298.267 309.595 272.085 313.829 272.085 313.829C272.085 313.829 267.773 312.552 257.349 310.777C246.926 309.001 246.26 298.44 246.26 298.44L245.121 277.296L248.638 274.104L263.707 284.321C263.707 284.321 263.941 289.487 263.707 290.419C263.559 291.058 263.165 291.818 263.202 292.335C263.213 292.475 263.269 292.607 263.36 292.711C263.451 292.815 263.573 292.885 263.707 292.91C264.729 293.178 278.664 295.515 278.664 295.515C278.664 295.515 310.964 293.222 319.015 304.5C319.653 305.327 320.136 306.272 320.438 307.284C322.434 314.991 301.285 311.16 299.85 310.425Z" fill="#FBBEBE"/>
<path opacity="0.1" d="M320.457 307.328C319.225 307.897 318.461 308.305 318.461 308.305C318.461 308.305 306.904 307.954 300.411 305.515C293.918 303.075 286.026 303.51 286.026 303.51C286.026 303.51 258.969 298.682 263.165 292.379C263.176 292.519 263.232 292.652 263.323 292.756C263.414 292.86 263.536 292.929 263.67 292.954C264.692 293.222 278.627 295.559 278.627 295.559C278.627 295.559 310.927 293.267 318.978 304.544C319.636 305.367 320.138 306.312 320.457 307.328Z" fill="black"/>
<path d="M331.693 270.125C331.693 270.125 333.283 281.754 333.394 282.699C333.505 283.644 334.077 295.03 333.394 296.326C332.71 297.622 331.693 299.73 331.693 299.73C331.693 299.73 332.827 302.194 328.293 303.14C323.759 304.085 318.436 306.894 318.436 306.894C318.436 306.894 306.873 306.543 300.417 304.078C293.961 301.613 286.026 302.08 286.026 302.08C286.026 302.08 251.681 295.968 266.417 288.51C281.153 281.051 291.576 291.154 291.576 291.154L308.006 290.1C308.006 290.1 314.13 286.217 315.83 286.575C317.031 286.733 318.25 286.53 319.342 285.988L319.459 273.65L331.693 270.125Z" fill="#FBBEBE"/>
<path opacity="0.1" d="M248.38 241.581L245.09 241.402L235.123 281.632C235.123 281.632 245.885 278.81 250.524 281.632C255.163 284.455 263.67 285.036 263.67 285.036L260.497 252.967L248.38 241.581Z" fill="black"/>
<path d="M248.38 240.872L245.09 240.694L235.123 280.923C235.123 280.923 245.885 278.101 250.524 280.923C255.163 283.746 263.67 284.327 263.67 284.327L260.497 252.258L248.38 240.872Z" fill="#6C63FF"/>
<path opacity="0.1" d="M323.765 249.685L328.293 250.745C328.293 250.745 339.857 267.986 340.762 268.95C341.668 269.915 336.45 273.42 334.3 273.42C332.15 273.42 321.609 274.697 318.547 277.648C315.486 280.598 316.761 265.751 316.761 265.413C316.761 265.074 320.562 255.706 320.562 255.706L323.765 249.685Z" fill="black"/>
<path d="M323.765 248.982L328.293 250.036C328.293 250.036 339.857 267.309 340.762 268.248C341.668 269.187 336.45 272.718 334.3 272.718C332.15 272.718 321.609 273.995 318.547 276.945C315.486 279.895 316.761 265.049 316.761 264.71C316.761 264.372 320.587 254.972 320.587 254.972L323.765 248.982Z" fill="#6C63FF"/>
<g opacity="0.1">
<path opacity="0.1" d="M293.283 183.184C293.256 182.695 293.267 182.203 293.314 181.715C292.376 183.174 291.73 184.814 291.416 186.537V188.018C291.416 188.018 291.416 187.986 291.416 187.967V188.318C291.416 189.353 291.416 190.394 291.386 191.428H291.299V191.907C291.299 191.741 291.299 191.581 291.268 191.415C290.036 191.211 289.155 190.138 288.238 189.283C287.32 188.427 285.884 187.609 284.763 188.267C284.226 188.645 283.8 189.168 283.531 189.781L281.701 193.127C281.693 192.775 281.613 192.428 281.465 192.111C281.317 191.794 281.106 191.513 280.845 191.288C279.176 192.044 277.762 193.298 276.783 194.89C275.803 196.482 275.302 198.34 275.344 200.228C273.661 199.134 272.253 197.642 271.236 195.873C270.219 194.104 269.623 192.11 269.497 190.055C269.39 192.35 269.876 194.632 270.903 196.667C271.931 198.702 273.464 200.416 275.344 201.632C275.304 199.745 275.805 197.888 276.785 196.297C277.764 194.705 279.177 193.451 280.845 192.692C281.105 192.92 281.316 193.202 281.464 193.52C281.612 193.838 281.693 194.185 281.701 194.538L283.512 191.192C283.781 190.58 284.207 190.056 284.745 189.678C285.866 189.04 287.264 189.793 288.219 190.694C289.174 191.594 290.104 192.712 291.386 192.858C291.386 191.224 291.402 189.593 291.435 187.967C291.737 186.261 292.365 184.635 293.283 183.184Z" fill="black"/>
<path opacity="0.1" d="M291.201 189.615C291.232 189.18 291.281 188.746 291.342 188.337L291.41 186.575C291.225 187.576 291.155 188.596 291.201 189.615Z" fill="black"/>
<path opacity="0.1" d="M309.892 197.233C308.21 198.165 306.066 197.386 304.637 196.083C303.208 194.781 302.24 193.025 300.977 191.543C300.884 191.811 300.871 192.102 300.94 192.378C301.01 192.654 301.158 192.902 301.366 193.088C301.242 193.088 301.125 193.025 301.008 192.993C302.24 194.461 303.22 196.186 304.637 197.463C306.054 198.74 308.21 199.544 309.892 198.612C311.573 197.68 312.054 195.496 311.906 193.369C311.795 195.043 311.216 196.492 309.892 197.233Z" fill="black"/>
<path opacity="0.1" d="M300.971 192.98C298.911 192.398 297.072 191.177 295.7 189.481C294.328 187.785 293.489 185.695 293.295 183.491C292.944 188.503 296.591 193.529 301.366 194.493C301.162 194.31 301.016 194.068 300.946 193.799C300.876 193.529 300.885 193.244 300.971 192.98Z" fill="black"/>
</g>
<path d="M596.822 297.348C596.822 297.348 594.394 296.996 594.394 293.337C594.394 289.678 592.657 282.826 592.657 282.826C592.657 282.826 591.154 270.904 589.078 269.014C587.002 267.124 584.334 256.026 584.334 256.026C584.334 256.026 583.879 250.004 582.948 248.708C582.018 247.411 580.761 244.238 578.907 239.71C577.053 235.183 569.34 232.079 569.34 232.079C569.34 232.079 555.362 223.676 551.401 220.936C551.038 220.709 550.7 220.444 550.39 220.144C549.7 219.212 546.694 219.193 546.694 219.193C546.38 217.13 546.078 214.768 545.979 212.629C545.979 212.399 545.979 212.169 545.979 211.939C550.396 209.232 553.723 204.965 555.349 199.921C555.423 199.678 555.485 199.429 555.553 199.18C555.823 199.094 556.073 198.949 556.285 198.755C556.497 198.561 556.668 198.323 556.785 198.056C557.136 197.233 557.148 196.275 557.592 195.502C558.109 194.595 559.095 194.11 559.871 193.433C561.83 191.703 562.335 188.797 562.243 186.16C562.181 184.014 561.849 181.856 561.978 179.729C561.978 179.551 561.978 179.372 562.015 179.193C562.052 178.88 562.095 178.554 562.151 178.248C562.453 176.664 563.112 175.17 563.481 173.599C563.851 172.028 563.888 170.259 563.025 168.906C561.763 166.92 559.132 166.524 556.822 166.351C554.204 166.122 551.893 166.415 550.187 164.161C549.404 162.984 548.522 161.881 547.55 160.866C547.205 160.534 543.854 158.408 543.854 158.274C540.575 156.693 536.855 156.396 533.381 157.437C531.638 157.961 530.005 158.816 528.237 159.244C524.442 160.176 520.069 159.168 516.84 161.422C515.042 162.699 513.964 164.736 512.953 166.709C512.132 168.335 511.298 169.964 510.452 171.594C509.084 174.27 507.705 176.99 507.132 179.953C507.012 180.6 506.936 181.255 506.904 181.913C506.904 182.15 506.904 182.386 506.904 182.622C506.904 182.724 506.904 182.827 506.904 182.929C506.904 183.146 506.904 183.363 506.941 183.567C506.978 183.772 506.941 183.829 506.984 183.963C507.027 184.097 507.039 184.397 507.076 184.602C507.113 184.806 507.187 185.17 507.261 185.445C507.261 185.566 507.335 185.681 507.372 185.802C507.409 185.924 507.507 186.23 507.587 186.441C507.668 186.652 507.674 186.664 507.723 186.773C507.815 186.996 507.926 187.213 508.037 187.411C508.086 187.494 508.123 187.577 508.173 187.66C508.342 187.959 508.531 188.245 508.739 188.516C510.052 190.221 511.998 191.307 513.434 192.903C513.434 192.967 513.434 193.031 513.434 193.095C513.434 193.267 513.434 193.44 513.434 193.618C513.522 197.179 514.448 200.664 516.131 203.769C517.815 206.874 520.205 209.505 523.093 211.434C523.093 211.677 523.124 211.926 523.136 212.175C523.257 214.069 523.234 215.969 523.069 217.858C522.817 217.553 522.503 217.309 522.149 217.146C521.795 216.982 521.411 216.903 521.023 216.913C520.759 216.9 520.493 216.923 520.235 216.984L520.179 216.939V216.996C518.824 217.341 517.155 218.803 515.559 222.961C515.559 222.961 510.705 228.631 507.008 228.395C503.312 228.159 493.954 234.302 493.954 234.302C493.954 234.302 484.825 240.438 482.866 246.696C481.77 250.246 480.455 253.718 478.929 257.092L467.612 281.179L465.536 300.336C465.536 300.336 466.688 308.835 466.46 310.138C466.232 311.441 471.198 323.127 471.198 323.127C471.198 323.127 487.603 352.999 494.305 354.531L494.786 354.187C495.074 354.337 495.378 354.453 495.692 354.531L497.072 353.529C497.157 354.651 497.12 355.78 496.961 356.894C496.043 359.851 497.312 379.097 498.926 382.871C500.54 386.645 499.967 436.134 499.967 436.134L499.739 440.496C499.739 440.496 499.739 440.636 499.794 440.879L499.739 441.913L499.905 442.003C500.078 443.39 500.022 444.798 499.739 446.166C499.16 448.082 498.926 453.49 498.926 453.49C498.926 453.49 494.305 484.065 496.499 490.208C498.692 496.351 500.546 503.082 500.546 503.082C500.546 503.082 502.856 510.745 500.657 512.022C498.458 513.299 492.229 515.566 493.498 518.752C494.669 521.702 499.111 529.608 499.77 530.764L499.714 531.402L498.809 541.575C498.955 542.918 499.307 544.228 499.85 545.457C500.842 547.679 502.764 549.972 506.435 549.723C507.051 549.678 507.76 549.608 508.456 549.512C515.165 548.573 523.42 545.47 523.42 545.47C522.992 545.189 522.6 544.852 522.256 544.467C521.926 544.136 521.664 543.739 521.488 543.3C521.311 542.861 521.222 542.389 521.227 541.913C521.325 540.055 517.98 531.236 517.142 529.059L516.951 528.573C516.951 528.573 524.578 520.304 523.309 512.986C523.309 512.986 514.869 507.877 517.647 505.068C520.426 502.258 525.391 494.212 525.391 494.212C525.391 494.212 525.619 464.103 525.391 459.614C525.154 456.492 525.296 453.351 525.816 450.266C525.909 449.806 526.02 449.353 526.137 448.899C529.982 449.501 533.866 449.806 537.755 449.812C539.176 449.812 540.614 449.783 542.068 449.723C542.068 450.149 542.086 450.608 542.123 451.102C542.443 458.561 543.041 471.645 543.528 476.504C544.218 483.465 548.031 502.245 548.031 502.245C548.031 502.245 540.755 507.079 549.3 519.014C549.3 519.014 549.3 523.331 548.733 523.963C548.128 526.011 547.64 528.094 547.273 530.202C546.916 532.443 546.768 534.723 547.347 535.898C548.733 538.72 557.05 538.49 557.05 538.49C557.117 538.474 557.185 538.464 557.253 538.458C558.823 538.286 560.41 538.441 561.922 538.912C563.433 539.384 564.839 540.163 566.056 541.204C569.217 543.835 581.205 542.686 587.704 541.843C590.249 541.504 591.949 541.204 591.949 541.204C592.031 540.906 592.06 540.594 592.035 540.285C591.967 538.631 590.717 535.004 582.24 531.766C582.24 531.766 574.268 526.211 574.379 521.37H574.201H573.283C573.862 521.351 574.268 521.351 574.268 521.351C574.268 521.351 571.145 509.544 572.42 508.58C573.695 507.616 569.876 494.531 569.876 494.531C569.876 494.531 567.689 472.565 567.566 471.032C567.574 469.711 567.769 468.399 568.145 467.137L567.566 455.087C567.566 455.087 567.455 451.083 567.566 449.78C567.553 448.65 567.467 447.521 567.307 446.402C567.252 445.955 567.196 445.489 567.134 445.029C570.122 444.244 572.063 443.522 572.063 443.522L571.718 401.6C574.256 396.492 574.724 385.278 574.712 377.335C574.712 372.226 574.49 368.446 574.49 368.446L577.958 362.577C577.958 362.577 578.759 355.553 577.49 354.014C576.93 353.318 577.182 352.597 577.644 352.003C577.887 351.796 578.145 351.608 578.414 351.441C578.384 351.396 578.357 351.349 578.334 351.3C578.576 351.09 578.834 350.9 579.104 350.732C579.104 350.732 577.872 348.752 578.975 347.916C580.01 348.644 580.934 349.225 581.636 349.64C581.587 350.106 581.538 350.374 581.538 350.374L581.833 349.736C582.511 350.132 582.924 350.374 582.924 350.374C582.924 350.374 588.357 339.155 588.24 337.507C588.123 335.86 591.936 328.886 591.936 328.886C591.936 328.886 592.399 325.221 594.481 323.689C596.563 322.156 596.095 311.051 596.095 311.051C596.095 311.051 596.674 305.266 598.06 302.909C599.446 300.553 596.822 297.348 596.822 297.348ZM492.858 292.424L492.963 295.1C492.346 294.072 491.903 293.337 491.903 293.337L492.858 292.424Z" fill="url(#paint1_linear)"/>
<path d="M583.244 345.521L581.914 351.396C581.914 351.396 571.256 345.745 569.34 338.593C567.424 331.441 572.55 328.714 572.55 328.714L582.487 333.069L583.244 345.521Z" fill="white"/>
<path opacity="0.1" d="M583.244 345.521L581.914 351.396C581.914 351.396 571.256 345.745 569.34 338.593C567.424 331.441 572.55 328.714 572.55 328.714L582.487 333.069L583.244 345.521Z" fill="black"/>
<path d="M523.432 545.464C523.432 545.464 513.575 549.218 506.799 549.691C503.201 549.94 501.31 547.654 500.337 545.451C499.808 544.236 499.463 542.943 499.314 541.619L500.207 531.498L500.675 526.115L515.072 522.232L517.111 528.701L517.302 529.186C518.116 531.351 521.405 540.125 521.307 541.958C521.299 542.432 521.384 542.903 521.556 543.342C521.729 543.781 521.986 544.179 522.311 544.512C522.644 544.877 523.021 545.197 523.432 545.464Z" fill="white"/>
<path d="M590.729 540.317C590.754 540.626 590.725 540.938 590.643 541.236C590.643 541.236 569.562 544.876 565.249 541.236C564.037 540.173 562.624 539.384 561.101 538.918C559.578 538.453 557.978 538.323 556.403 538.535C556.403 538.535 548.247 538.765 546.885 535.981C546.318 534.812 546.466 532.545 546.817 530.317C547.176 528.221 547.653 526.148 548.247 524.11L548.573 523.842L550.514 522.226L573.233 521.53H573.406C573.295 526.345 581.112 531.868 581.112 531.868C589.435 535.061 590.661 538.669 590.729 540.317Z" fill="white"/>
<path opacity="0.1" d="M590.735 540.317C590.757 540.627 590.726 540.938 590.643 541.236C590.643 541.236 569.562 544.876 565.255 541.236C564.043 540.172 562.629 539.382 561.104 538.917C559.58 538.452 557.979 538.322 556.403 538.535C556.403 538.535 548.24 538.765 546.879 535.981C546.318 534.812 546.46 532.546 546.811 530.311C549.953 530.636 554.912 531.447 556.859 533.388C559.803 536.326 564.793 539.263 567.849 539.499C570.264 539.653 584.624 540.125 590.735 540.317Z" fill="black"/>
<path opacity="0.1" d="M523.432 545.464C523.432 545.464 513.575 549.218 506.798 549.691C503.201 549.94 501.309 547.654 500.336 545.451C502.849 546.326 506.33 547.239 508.16 546.402C510.328 545.4 518.016 544.761 522.329 544.487C522.654 544.86 523.025 545.189 523.432 545.464Z" fill="black"/>
<path d="M538.057 242.852C529.925 239.576 519.465 228.753 522.077 223.695C522.654 222.418 522.999 221.041 523.093 219.634C523.261 217.723 523.286 215.801 523.167 213.887C522.984 210.749 522.62 207.625 522.077 204.532C522.077 204.532 547.464 205.125 545.986 209.002C545.554 210.145 545.48 212.118 545.604 214.321C545.727 216.524 546.029 219.034 546.349 221.147C546.786 224.04 547.236 226.256 547.236 226.256C547.236 226.256 545.678 228.51 544.772 228.631C543.866 228.753 549.725 247.546 538.057 242.852Z" fill="#CF6F80"/>
<path opacity="0.1" d="M517.278 529.155L517.087 529.372C509.497 519.857 500.318 531.722 500.318 531.722L500.183 531.466L500.651 526.083L515.048 522.201L517.087 528.669L517.278 529.155Z" fill="black"/>
<path opacity="0.1" d="M573.418 522.201C573.418 522.201 567.874 522.086 564.917 524.793C561.96 527.501 547.667 525.374 548.283 524.793C548.463 524.498 548.573 524.163 548.604 523.816L550.544 522.201L573.264 521.505C573.35 521.952 573.418 522.201 573.418 522.201Z" fill="black"/>
<path d="M526.722 447.482C526.31 448.54 525.996 449.637 525.785 450.757C525.271 453.826 525.129 456.95 525.36 460.055C525.588 464.525 525.36 494.48 525.36 494.48C525.36 494.48 520.487 502.469 517.764 505.285C515.041 508.101 523.309 513.158 523.309 513.158C524.541 520.445 517.074 528.669 517.074 528.669C509.485 519.155 500.306 531.013 500.306 531.013C500.306 531.013 495.316 522.073 494.071 518.88C492.827 515.687 498.944 513.484 501.094 512.181C503.244 510.879 500.983 503.241 500.983 503.241C500.983 503.241 499.172 496.543 497.016 490.432C494.86 484.321 499.394 453.906 499.394 453.906C499.394 453.906 499.628 448.497 500.188 446.613C500.468 445.253 500.524 443.854 500.355 442.475C500.318 442.009 500.275 441.626 500.244 441.358C500.213 441.09 500.188 440.975 500.188 440.975L500.275 440.821L503.355 434.87C503.355 434.87 528.2 443.733 526.722 447.482Z" fill="#6C63FF"/>
<path d="M573.418 521.498C573.418 521.498 567.873 521.377 564.916 524.052C561.959 526.728 547.667 524.64 548.283 524.052C548.899 523.465 548.844 519.123 548.844 519.123C540.459 507.252 547.611 502.437 547.611 502.437C547.611 502.437 543.872 483.759 543.194 476.83C542.72 471.996 542.135 458.95 541.821 451.562C541.685 448.369 541.605 446.166 541.605 446.166L548.394 444.768L549.275 444.589L565.797 441.147C565.797 441.147 566.253 444.34 566.561 446.952C566.717 448.066 566.801 449.191 566.814 450.317C566.709 451.594 566.814 455.598 566.814 455.598L567.38 467.577C567.015 468.835 566.824 470.14 566.814 471.453C566.931 472.986 569.081 494.831 569.081 494.831C569.081 494.831 572.82 507.871 571.545 508.81C570.27 509.748 573.418 521.498 573.418 521.498Z" fill="#6C63FF"/>
<path opacity="0.1" d="M545.985 209.021C545.554 210.164 545.48 212.137 545.603 214.34C542.203 216.463 538.294 217.548 534.325 217.471C530.356 217.394 526.489 216.159 523.167 213.906C522.984 210.768 522.62 207.644 522.077 204.551C522.077 204.551 547.464 205.145 545.985 209.021Z" fill="black"/>
<path d="M555.787 194.921C555.854 200.715 553.698 206.299 549.793 210.445C545.888 214.591 540.554 216.959 534.964 217.028C529.375 217.098 523.988 214.863 519.988 210.815C515.988 206.767 513.704 201.239 513.637 195.445C513.637 195.266 513.637 195.1 513.637 194.921C513.637 189.126 515.858 183.568 519.811 179.47C523.765 175.372 529.127 173.069 534.718 173.069C540.309 173.069 545.671 175.372 549.624 179.47C553.578 183.568 555.799 189.126 555.799 194.921H555.787Z" fill="#CF6F80"/>
<path opacity="0.1" d="M538.057 242.852C529.925 239.576 519.465 228.753 522.077 223.695C522.654 222.418 522.999 221.041 523.093 219.634L534.225 229.123L541.113 234.979L546.349 221.166C546.786 224.059 547.236 226.275 547.236 226.275C547.236 226.275 545.678 228.529 544.772 228.65C543.866 228.772 549.725 247.546 538.057 242.852Z" fill="black"/>
<path d="M566.845 284.787L557.549 446.664L545.425 447.488L514.025 353.625L519.175 242.188L520.265 218.644L534.225 230.528L541.112 236.383L546.503 222.162L556.526 231.217L566.845 284.787Z" fill="#6C63FF"/>
<path opacity="0.1" d="M526.721 447.482C526.309 448.54 525.996 449.637 525.785 450.757C516.955 449.348 508.378 446.573 500.342 442.526L500.176 442.437L500.231 441.409V440.872L503.311 434.921C503.311 434.921 528.2 443.733 526.721 447.482Z" fill="black"/>
<path opacity="0.1" d="M548.597 450.783C546.342 451.183 544.068 451.453 541.784 451.594C541.648 448.401 541.568 446.198 541.568 446.198L548.394 444.768L548.597 450.783Z" fill="black"/>
<path opacity="0.1" d="M566.586 446.951C562.206 448.133 555.436 449.461 549.386 448.631L549.3 444.589L565.822 441.147C565.822 441.147 566.26 444.314 566.586 446.951Z" fill="black"/>
<path opacity="0.1" d="M549.274 449.372C524.017 453.842 500.884 441.026 500.884 441.026L501.106 436.683C501.106 436.683 501.679 387.456 500.089 383.682C498.5 379.908 497.262 360.796 498.161 357.878C499.061 354.959 494.878 310.898 494.878 310.898L494.2 293.018L469.379 282.565L480.468 258.599C481.966 255.24 483.254 251.785 484.325 248.254C486.253 242.028 495.204 235.917 495.204 235.917C495.204 235.917 504.383 229.813 508.012 230.042C511.64 230.272 516.396 224.64 516.396 224.64C519.907 215.362 523.086 219.532 523.086 219.532C523.086 219.979 523.086 219.532 522.914 220.905C521.682 231.09 542.837 263.274 543.139 263.848L545.178 314.717L547.217 379.091L549.274 449.372Z" fill="black"/>
<path d="M548.597 449.372C523.339 453.842 500.201 441.026 500.201 441.026L500.428 436.683C500.428 436.683 500.995 387.456 499.406 383.682C497.816 379.908 496.578 360.777 497.484 357.833C498.389 354.889 494.182 310.873 494.182 310.873L493.498 292.993L468.684 282.539L479.772 258.574C481.266 255.215 482.554 251.762 483.629 248.235C485.557 242.028 494.539 235.911 494.539 235.911C494.539 235.911 503.718 229.806 507.341 230.036C510.963 230.266 515.743 224.64 515.743 224.64C519.261 215.362 523.136 219.532 523.136 219.532C523.136 219.979 522.766 220.17 522.963 220.905C525.674 230.783 542.209 263.274 542.511 263.848L544.55 314.717L546.546 379.123L548.597 449.372Z" fill="white"/>
<path opacity="0.1" d="M541.79 265.285C539.073 264.11 524.682 247.079 524.682 247.079V243.203C524.159 241.926 521.042 242.705 518.522 243.599L519.606 220.055L520.838 221.115C523.53 230.987 541.494 264.717 541.79 265.285Z" fill="black"/>
<path d="M542.474 263.88C539.751 262.699 525.36 245.675 525.36 245.675V241.792C524.837 240.515 521.725 241.294 519.2 242.188L520.265 218.669L521.498 219.723C524.214 229.583 542.172 263.305 542.474 263.88Z" fill="white"/>
<path opacity="0.1" d="M500.885 348.81C501.223 348.81 518.448 346.932 518.448 346.932C518.448 346.932 528.878 368.197 528.194 373.363C527.51 378.529 526.272 383.114 522.077 382.303C517.881 381.492 499.499 382.941 499.499 382.941L500.885 348.81Z" fill="black"/>
<path d="M500.201 347.399C500.546 347.399 517.77 345.521 517.77 345.521C517.77 345.521 528.194 366.818 527.516 371.926C526.838 377.035 525.588 381.677 521.399 380.866C517.21 380.055 498.814 381.505 498.814 381.505L500.201 347.399Z" fill="white"/>
<path d="M513.181 337.443C513.181 337.443 528.988 346.256 529.327 348.938C529.666 351.62 521.282 347.763 519.47 347.29C518.278 346.996 517.064 346.8 515.842 346.703L503.761 347.041L513.181 337.443Z" fill="#CF6F80"/>
<path opacity="0.1" d="M537.373 266.383C538.292 266.383 539.037 265.611 539.037 264.659C539.037 263.707 538.292 262.935 537.373 262.935C536.455 262.935 535.71 263.707 535.71 264.659C535.71 265.611 536.455 266.383 537.373 266.383Z" fill="black"/>
<path d="M537.373 265.681C538.292 265.681 539.037 264.909 539.037 263.957C539.037 263.005 538.292 262.233 537.373 262.233C536.455 262.233 535.71 263.005 535.71 263.957C535.71 264.909 536.455 265.681 537.373 265.681Z" fill="#3F3D56"/>
<path opacity="0.1" d="M540.435 341.019C541.353 341.019 542.098 340.247 542.098 339.295C542.098 338.343 541.353 337.571 540.435 337.571C539.516 337.571 538.771 338.343 538.771 339.295C538.771 340.247 539.516 341.019 540.435 341.019Z" fill="black"/>
<path d="M540.435 340.311C541.353 340.311 542.098 339.539 542.098 338.586C542.098 337.634 541.353 336.862 540.435 336.862C539.516 336.862 538.771 337.634 538.771 338.586C538.771 339.539 539.516 340.311 540.435 340.311Z" fill="#3F3D56"/>
<path opacity="0.1" d="M539.036 303.701C539.955 303.701 540.699 302.929 540.699 301.977C540.699 301.025 539.955 300.253 539.036 300.253C538.117 300.253 537.373 301.025 537.373 301.977C537.373 302.929 538.117 303.701 539.036 303.701Z" fill="black"/>
<path d="M539.036 302.999C539.955 302.999 540.699 302.227 540.699 301.275C540.699 300.323 539.955 299.551 539.036 299.551C538.117 299.551 537.373 300.323 537.373 301.275C537.373 302.227 538.117 302.999 539.036 302.999Z" fill="#3F3D56"/>
<path d="M577.379 346.345C577.379 346.345 578.512 348.108 577.379 348.899C576.245 349.691 577.49 351.722 577.49 351.722C577.49 351.722 574.662 353.433 575.906 354.985C577.151 356.537 576.362 363.503 576.362 363.503L572.962 369.372C572.962 369.372 573.165 373.133 573.177 378.216C573.177 386.147 572.728 397.297 570.239 402.38L570.571 444.085C570.571 444.085 558.663 448.599 548.696 447.22L547.217 380.298C547.217 380.298 549.373 342.348 550.168 335.068C550.633 331.289 550.823 327.478 550.735 323.67C550.735 323.67 550.396 312.277 549.256 306.996C549.256 306.996 548.024 284.085 547.901 277.744C547.846 274.71 548 265.86 548.172 257.444C548.363 248.242 548.579 239.564 548.579 239.564L546.33 221.115C546.33 221.115 548.579 220.885 549.256 221.818C549.56 222.112 549.89 222.375 550.242 222.603C554.129 225.323 567.842 233.689 567.842 233.689C567.842 233.689 575.432 236.818 577.249 241.3C579.067 245.783 580.329 248.963 581.21 250.24C582.091 251.518 582.572 257.52 582.572 257.52C582.572 257.52 585.184 268.567 587.223 270.438C589.262 272.309 590.728 284.187 590.728 284.187L572.709 298.874C572.709 298.874 571.126 323.306 570.787 324.251C570.448 325.196 577.379 346.345 577.379 346.345Z" fill="white"/>
<path d="M578.063 346.345C578.063 346.345 579.19 348.107 578.063 348.899C576.935 349.691 578.167 351.722 578.167 351.722C578.167 351.722 575.34 353.433 576.584 354.985C577.828 356.537 577.04 363.503 577.04 363.503L573.652 369.372C573.652 369.372 573.855 373.133 573.873 378.216C573.873 386.147 573.424 397.296 570.935 402.379L571.274 444.084C571.274 444.084 559.366 448.599 549.398 447.22L547.926 380.298C547.926 380.298 550.076 342.348 550.876 335.068C551.342 331.289 551.529 327.478 551.437 323.669C551.437 323.669 551.098 312.277 549.965 306.996C549.965 306.996 548.733 284.085 548.603 277.744C548.548 274.71 548.702 265.86 548.874 257.443C549.065 248.242 549.281 239.564 549.281 239.564L546.312 220.866C546.312 220.866 549.281 220.866 549.965 221.818C550.265 222.115 550.596 222.378 550.95 222.603C554.831 225.323 568.545 233.689 568.545 233.689C568.545 233.689 576.116 236.818 577.964 241.3C579.812 245.783 581.044 248.963 581.925 250.24C582.806 251.518 583.287 257.52 583.287 257.52C583.287 257.52 585.899 268.567 587.938 270.438C589.977 272.309 591.449 284.187 591.449 284.187L573.43 298.874C573.43 298.874 571.847 323.305 571.502 324.251C571.157 325.196 578.063 346.345 578.063 346.345Z" fill="white"/>
<path opacity="0.1" d="M556.483 244.985L558.115 249.902L549.546 258.842C549.737 249.64 549.953 240.962 549.953 240.962L546.983 222.271C546.983 222.271 549.953 222.271 550.637 223.222C550.937 223.52 551.268 223.783 551.622 224.008L558.904 245.777L556.483 244.985Z" fill="black"/>
<path d="M555.787 243.574L557.419 248.484L548.856 257.424C549.041 248.222 549.263 239.544 549.263 239.544L546.287 220.847C546.287 220.847 549.263 220.847 549.94 221.798C550.242 222.094 550.573 222.357 550.926 222.584L558.251 244.372L555.787 243.574Z" fill="white"/>
<path opacity="0.1" d="M555.787 194.921C555.789 197.222 555.44 199.509 554.752 201.696C554.636 201.716 554.517 201.712 554.403 201.684C554.288 201.655 554.181 201.603 554.086 201.53C553.92 195.783 551.197 190.381 547.84 185.79C546.895 184.405 545.753 183.177 544.451 182.15C543.134 181.125 541.496 180.645 539.856 180.802C538.008 181.064 536.375 182.367 534.508 182.533C532.044 182.744 529.839 180.975 527.393 180.892C526.399 180.9 525.417 181.129 524.515 181.563C523.613 181.997 522.811 182.626 522.163 183.408C520.877 184.98 519.922 186.814 519.36 188.791C518.391 191.791 517.864 194.925 517.795 198.088C517.764 199.876 517.598 202.118 515.996 202.769C516.117 201.455 515.974 200.129 515.574 198.876C515.174 197.623 514.527 196.47 513.674 195.489L513.637 195.445C513.637 195.266 513.637 195.1 513.637 194.921C513.637 189.126 515.858 183.568 519.811 179.47C523.765 175.372 529.127 173.069 534.718 173.069C540.309 173.069 545.671 175.372 549.624 179.47C553.578 183.568 555.799 189.126 555.799 194.921H555.787Z" fill="black"/>
<path d="M543.465 160.228C540.264 158.667 536.623 158.372 533.227 159.398C531.52 159.921 529.912 160.771 528.181 161.198C524.485 162.124 520.173 161.122 517 163.363C515.238 164.64 514.179 166.658 513.193 168.625L510.729 173.484C509.386 176.147 508.031 178.855 507.47 181.786C506.909 184.717 507.248 187.999 509.041 190.362C510.341 192.073 512.275 193.152 513.692 194.768C514.543 195.753 515.189 196.91 515.587 198.166C515.986 199.422 516.129 200.75 516.008 202.067C517.61 201.428 517.77 199.174 517.807 197.386C517.876 194.223 518.404 191.089 519.372 188.088C519.934 186.111 520.889 184.278 522.175 182.705C522.823 181.923 523.625 181.293 524.527 180.858C525.429 180.423 526.41 180.193 527.405 180.183C529.869 180.272 532.081 182.041 534.52 181.824C536.369 181.664 538.007 180.362 539.868 180.1C541.508 179.939 543.147 180.42 544.463 181.447C545.766 182.472 546.907 183.7 547.846 185.087C551.209 189.685 553.938 195.062 554.098 200.828C554.795 201.352 555.799 200.662 556.144 199.845C556.489 199.027 556.501 198.069 556.938 197.29C557.444 196.39 558.411 195.905 559.168 195.228C561.09 193.51 561.571 190.617 561.497 187.993C561.423 185.368 560.93 182.705 561.411 180.126C561.7 178.548 562.353 177.06 562.711 175.496C563.068 173.931 563.111 172.175 562.267 170.828C561.035 168.855 558.442 168.459 556.181 168.274C553.612 168.044 551.314 168.338 549.675 166.096C548.904 164.928 548.038 163.83 547.088 162.814C546.749 162.475 543.465 160.368 543.465 160.228Z" fill="#512E4E"/>
<path opacity="0.1" d="M476.489 294.889L470.058 282.558L468.019 301.588C468.019 301.588 469.152 310.042 468.924 311.339C468.696 312.635 473.569 324.257 473.569 324.257C473.569 324.257 489.666 353.982 496.24 355.508L518.417 339.059L512.528 331.307C512.528 331.307 510.489 330.483 509.977 331.307C509.977 331.307 499.036 311.805 497.909 310.4C496.782 308.995 496.997 306.166 496.997 306.166C496.997 306.166 495.297 304.289 495.864 302.526C496.431 300.764 492.611 294.659 492.611 294.659L496.123 291.256L476.489 294.889Z" fill="black"/>
<path d="M470.396 281.147L468.696 282.558L466.657 301.588C466.657 301.588 467.79 310.042 467.562 311.339C467.334 312.635 472.213 324.257 472.213 324.257C472.213 324.257 488.305 353.982 494.878 355.509L517.092 339.059L511.197 331.307C511.197 331.307 509.158 330.483 508.646 331.307C508.646 331.307 497.712 311.805 496.578 310.4C495.445 308.995 495.672 306.166 495.672 306.166C495.672 306.166 493.972 304.289 494.539 302.527C495.106 300.764 491.249 294.659 491.249 294.659L494.761 291.256L470.396 281.147Z" fill="white"/>
<path opacity="0.1" d="M575.907 355.719C577.139 357.271 576.363 364.244 576.363 364.244L572.962 370.074C572.962 370.074 573.165 373.842 573.178 378.925L567.461 380.777C566.943 380.944 566.395 380.98 565.861 380.883C565.327 380.786 564.823 380.558 564.392 380.218C563.96 379.878 563.613 379.436 563.38 378.929C563.146 378.422 563.033 377.864 563.05 377.303L564.042 344.353L577.379 349.634C576.246 350.451 577.49 352.456 577.49 352.456C577.49 352.456 574.662 354.167 575.907 355.719Z" fill="black"/>
<path d="M576.584 355.017C577.816 356.562 577.04 363.535 577.04 363.535L573.652 369.372C573.652 369.372 573.855 373.133 573.874 378.216L568.052 380.1C567.547 380.264 567.011 380.301 566.489 380.206C565.967 380.112 565.474 379.89 565.052 379.558C564.63 379.226 564.291 378.794 564.062 378.298C563.834 377.803 563.723 377.258 563.74 376.709L564.732 343.644L578.063 348.938C576.923 349.755 578.168 351.76 578.168 351.76C578.168 351.76 575.34 353.465 576.584 355.017Z" fill="white"/>
<path d="M581.007 339.295C581.007 339.295 580.102 345.291 577.835 345.643C575.568 345.994 574.551 355.343 572.29 355.017C570.029 354.691 571.526 346.32 571.606 344.698C571.686 343.076 569.142 336.358 571.04 334.832C572.937 333.305 578.974 334.832 578.974 334.832L581.007 339.295Z" fill="#CF6F80"/>
<path opacity="0.1" d="M585.8 293.127L590.07 284.187C590.07 284.187 591.776 291 591.776 294.64C591.776 298.28 594.154 298.637 594.154 298.637C594.154 298.637 596.76 301.83 595.386 304.161C594.012 306.492 593.464 312.265 593.464 312.265C593.464 312.265 593.914 323.305 591.875 324.832C589.836 326.358 589.38 330.004 589.38 330.004C589.38 330.004 585.64 336.932 585.757 338.58C585.874 340.227 580.546 351.383 580.546 351.383C580.546 351.383 583.151 337.52 567.966 331.53C567.966 331.53 567.849 326.83 568.982 325.54C570.116 324.25 571.884 323.625 570.775 317.137C569.666 310.649 570.455 302.826 570.455 301.262C570.455 299.697 573.855 289.947 573.855 289.947L585.8 293.127Z" fill="black"/>
<path d="M587.698 282.91L591.431 284.187C591.431 284.187 593.138 291 593.138 294.64C593.138 298.28 595.516 298.638 595.516 298.638C595.516 298.638 598.121 301.83 596.748 304.161C595.374 306.492 594.819 312.265 594.819 312.265C594.819 312.265 595.275 323.306 593.236 324.832C591.197 326.358 590.772 330.004 590.772 330.004C590.772 330.004 587.033 336.933 587.15 338.58C587.267 340.228 581.932 351.383 581.932 351.383C581.932 351.383 584.538 337.52 569.352 331.53C569.352 331.53 569.241 326.83 570.375 325.541C571.508 324.251 573.276 323.625 572.167 317.137C571.059 310.649 571.847 302.827 571.847 301.262C571.847 299.698 575.248 289.947 575.248 289.947L587.698 282.91Z" fill="white"/>
<path opacity="0.1" d="M505.222 514.627C505.222 514.627 511.173 510.751 515.078 513.567C518.984 516.383 505.222 514.627 505.222 514.627Z" fill="black"/>
<path opacity="0.1" d="M551.475 502.641C551.475 502.641 556.742 501.939 561.165 506.875C565.588 511.811 551.475 502.641 551.475 502.641Z" fill="black"/>
<g opacity="0.1">
<path opacity="0.1" d="M559.168 193.823C558.411 194.506 557.437 194.985 556.932 195.885C556.501 196.658 556.489 197.616 556.144 198.44C555.799 199.263 554.794 199.947 554.092 199.423C553.932 193.676 551.203 188.28 547.845 183.682C546.907 182.297 545.766 181.071 544.463 180.049C543.146 179.019 541.505 178.536 539.861 178.695C538.013 178.957 536.387 180.26 534.52 180.426C532.056 180.636 529.845 178.868 527.399 178.785C526.405 178.792 525.425 179.021 524.523 179.455C523.622 179.889 522.821 180.518 522.175 181.301C520.889 182.873 519.934 184.706 519.372 186.684C518.404 189.684 517.876 192.818 517.807 195.981C517.77 197.763 517.61 199.985 516.021 200.649C516.057 201.123 516.057 201.599 516.021 202.073C517.628 201.435 517.789 199.18 517.826 197.392C517.895 194.23 518.422 191.095 519.39 188.095C519.952 186.118 520.907 184.284 522.193 182.712C522.84 181.93 523.641 181.3 524.542 180.865C525.443 180.43 526.423 180.2 527.417 180.189C529.882 180.279 532.099 182.048 534.539 181.831C536.387 181.671 538.026 180.368 539.88 180.106C541.522 179.946 543.163 180.426 544.482 181.454C545.784 182.478 546.925 183.706 547.864 185.094C551.221 189.691 553.95 195.068 554.111 200.834C554.813 201.358 555.817 200.668 556.162 199.851C556.507 199.034 556.519 198.076 556.951 197.297C557.456 196.396 558.429 195.911 559.187 195.234C561.109 193.516 561.589 190.624 561.515 187.999C561.515 187.916 561.515 187.839 561.515 187.756C561.392 190.043 560.807 192.361 559.168 193.823Z" fill="black"/>
<path opacity="0.1" d="M513.686 193.376C512.275 191.76 510.341 190.675 509.041 188.963C507.943 187.453 507.318 185.63 507.248 183.74C507.055 186.103 507.692 188.459 509.041 190.375C510.341 192.086 512.275 193.165 513.686 194.781C515.048 196.36 515.867 198.363 516.015 200.477C516.107 199.192 515.949 197.9 515.549 196.68C515.148 195.46 514.515 194.336 513.686 193.376Z" fill="black"/>
<path opacity="0.1" d="M562.711 174.091C562.348 175.656 561.701 177.143 561.405 178.721C561.227 179.787 561.163 180.871 561.214 181.952C561.234 181.341 561.298 180.733 561.405 180.132C561.701 178.555 562.348 177.067 562.711 175.502C562.92 174.639 562.989 173.745 562.914 172.859C562.875 173.274 562.807 173.686 562.711 174.091Z" fill="black"/>
</g>
<path opacity="0.1" d="M82.466 535.681C115.618 535.681 142.494 531.207 142.494 525.687C142.494 520.168 115.618 515.694 82.466 515.694C49.3137 515.694 22.4385 520.168 22.4385 525.687C22.4385 531.207 49.3137 535.681 82.466 535.681Z" fill="#6C63FF"/>
<path d="M84.4007 334.238H80.5381V424.385H84.4007V334.238Z" fill="#535461"/>
<path d="M108.679 424.116L108.432 428.178L108.094 433.925L107.952 436.313L107.607 442.06L107.459 444.448L107.12 450.196L103.221 515.374C103.054 518.179 101.862 520.812 99.8876 522.736C97.913 524.661 95.3044 525.732 92.5938 525.732H72.3444C69.6264 525.733 67.011 524.656 65.0349 522.722C63.0588 520.787 61.8718 518.142 61.7176 515.33L57.818 450.151L57.4792 444.404L57.3375 442.015L56.9863 436.268L56.8446 433.88L56.5058 428.133L56.2594 424.072C56.2168 423.293 56.3274 422.514 56.5845 421.781C56.8417 421.048 57.24 420.378 57.7552 419.81C58.2704 419.241 58.8918 418.788 59.5814 418.477C60.2711 418.165 61.0147 418.003 61.7669 417.999H103.178C103.933 418.003 104.68 418.168 105.372 418.482C106.064 418.797 106.686 419.254 107.202 419.827C107.717 420.4 108.114 421.076 108.368 421.814C108.622 422.551 108.728 423.335 108.679 424.116Z" fill="#3F3D56"/>
<path d="M108.432 428.171L108.087 433.906H56.8445L56.4995 428.171H108.432Z" fill="#9D9CB5"/>
<path d="M107.945 436.294L107.606 442.028H57.3308L56.9858 436.294H107.945Z" fill="#9D9CB5"/>
<path d="M107.459 444.423L107.12 450.151H57.8176L57.4727 444.423H107.459Z" fill="#9D9CB5"/>
<path d="M50.6287 368.031C73.1267 384.902 82.4968 411.287 82.4968 411.287C82.4968 411.287 55.3907 410.323 32.8866 393.452C10.3824 376.581 1 350.215 1 350.215C1 350.215 28.106 351.16 50.6287 368.031Z" fill="#6C63FF"/>
<path d="M1 350.215C1 350.215 29.1348 366.402 38.1599 379.806C47.185 393.21 82.4721 411.3 82.4721 411.3" stroke="#535461" stroke-width="2" stroke-miterlimit="10"/>
<path d="M65.1239 334.046C77.3709 343.222 82.4717 357.584 82.4717 357.584C82.4717 357.584 67.6866 357.06 55.4704 347.884C43.2542 338.708 38.1226 324.34 38.1226 324.34C38.1226 324.34 52.883 324.863 65.1239 334.046Z" fill="#6C63FF"/>
<path d="M38.1226 324.34C38.1226 324.34 53.4375 333.152 58.3535 340.445C63.2696 347.737 82.4717 357.584 82.4717 357.584" stroke="#535461" stroke-width="2" stroke-miterlimit="10"/>
<path d="M100.264 356.856C86.1996 372.878 83.2241 393.816 83.2241 393.816C83.2241 393.816 103.055 388.772 117.107 372.744C131.159 356.715 134.146 335.783 134.146 335.783C134.146 335.783 114.328 340.834 100.264 356.856Z" fill="#6C63FF"/>
<path d="M134.159 335.789C134.159 335.789 115.838 352.213 111.18 363.529C106.523 374.844 83.2241 393.816 83.2241 393.816" stroke="#535461" stroke-width="2" stroke-miterlimit="10"/>
<defs>
<linearGradient id="paint0_linear" x1="287.486" y1="533.561" x2="287.486" y2="164.691" gradientUnits="userSpaceOnUse">
<stop stop-color="#808080" stop-opacity="0.25"/>
<stop offset="0.54" stop-color="#808080" stop-opacity="0.12"/>
<stop offset="1" stop-color="#808080" stop-opacity="0.1"/>
</linearGradient>
<linearGradient id="paint1_linear" x1="117221" y1="345690" x2="117221" y2="103914" gradientUnits="userSpaceOnUse">
<stop stop-color="#808080" stop-opacity="0.25"/>
<stop offset="0.54" stop-color="#808080" stop-opacity="0.12"/>
<stop offset="1" stop-color="#808080" stop-opacity="0.1"/>
</linearGradient>
</defs>
</svg>
