<svg width="148" height="83" viewBox="0 0 148 83" fill="none" xmlns="http://www.w3.org/2000/svg">
<g filter="url(#filter0_d)">
<rect x="20" y="13" width="108" height="43" rx="10" fill="#E8F5FF"/>
</g>
<path d="M41.2365 43.162C40.2885 43.162 39.4065 43.054 38.5905 42.838C37.7745 42.61 37.1085 42.292 36.5925 41.884C36.4125 41.752 36.2805 41.614 36.1965 41.47C36.1245 41.314 36.0885 41.122 36.0885 40.894C36.0885 40.594 36.1785 40.33 36.3585 40.102C36.5505 39.874 36.7665 39.76 37.0065 39.76C37.1385 39.76 37.2645 39.784 37.3845 39.832C37.5165 39.868 37.6725 39.94 37.8525 40.048C38.3685 40.372 38.8905 40.612 39.4185 40.768C39.9465 40.912 40.5285 40.984 41.1645 40.984C41.9565 40.984 42.5625 40.852 42.9825 40.588C43.4025 40.324 43.6125 39.946 43.6125 39.454C43.6125 39.082 43.4145 38.782 43.0185 38.554C42.6345 38.326 41.9445 38.11 40.9485 37.906C39.8325 37.678 38.9385 37.402 38.2665 37.078C37.6065 36.754 37.1205 36.352 36.8085 35.872C36.5085 35.392 36.3585 34.81 36.3585 34.126C36.3585 33.37 36.5745 32.692 37.0065 32.092C37.4505 31.48 38.0565 31.006 38.8245 30.67C39.6045 30.322 40.4805 30.148 41.4525 30.148C43.1565 30.148 44.5605 30.574 45.6645 31.426C45.8445 31.57 45.9705 31.72 46.0425 31.876C46.1265 32.02 46.1685 32.2 46.1685 32.416C46.1685 32.716 46.0725 32.98 45.8805 33.208C45.7005 33.436 45.4905 33.55 45.2505 33.55C45.1185 33.55 44.9925 33.532 44.8725 33.496C44.7645 33.46 44.6085 33.382 44.4045 33.262C43.9125 32.95 43.4565 32.716 43.0365 32.56C42.6285 32.404 42.1065 32.326 41.4705 32.326C40.7385 32.326 40.1625 32.47 39.7425 32.758C39.3225 33.034 39.1125 33.418 39.1125 33.91C39.1125 34.198 39.1905 34.438 39.3465 34.63C39.5145 34.81 39.7845 34.972 40.1565 35.116C40.5405 35.26 41.0805 35.41 41.7765 35.566C43.4085 35.926 44.5785 36.388 45.2865 36.952C46.0065 37.516 46.3665 38.29 46.3665 39.274C46.3665 40.042 46.1505 40.72 45.7185 41.308C45.2985 41.896 44.6985 42.352 43.9185 42.676C43.1505 43 42.2565 43.162 41.2365 43.162ZM50.6211 43.108C50.2251 43.108 49.8951 43 49.6311 42.784C49.3791 42.568 49.2531 42.25 49.2531 41.83V35.26C49.2531 34.84 49.3851 34.522 49.6491 34.306C49.9131 34.09 50.2371 33.982 50.6211 33.982C51.0051 33.982 51.3231 34.09 51.5751 34.306C51.8391 34.522 51.9711 34.84 51.9711 35.26V41.83C51.9711 42.25 51.8391 42.568 51.5751 42.784C51.3231 43 51.0051 43.108 50.6211 43.108ZM50.6211 32.542C50.1411 32.542 49.7631 32.422 49.4871 32.182C49.2111 31.93 49.0731 31.594 49.0731 31.174C49.0731 30.754 49.2111 30.424 49.4871 30.184C49.7631 29.944 50.1411 29.824 50.6211 29.824C51.0891 29.824 51.4611 29.95 51.7371 30.202C52.0251 30.442 52.1691 30.766 52.1691 31.174C52.1691 31.594 52.0311 31.93 51.7551 32.182C51.4791 32.422 51.1011 32.542 50.6211 32.542ZM62.8 33.982C63.208 33.982 63.532 34.102 63.772 34.342C64.024 34.57 64.15 34.876 64.15 35.26V42.046C64.15 43.474 63.736 44.554 62.908 45.286C62.08 46.018 60.868 46.384 59.272 46.384C57.928 46.384 56.824 46.144 55.96 45.664C55.744 45.544 55.576 45.394 55.456 45.214C55.336 45.046 55.276 44.854 55.276 44.638C55.276 44.338 55.348 44.092 55.492 43.9C55.636 43.708 55.828 43.612 56.068 43.612C56.2 43.612 56.356 43.636 56.536 43.684C56.716 43.744 56.902 43.81 57.094 43.882C57.478 44.026 57.832 44.14 58.156 44.224C58.48 44.308 58.828 44.35 59.2 44.35C59.968 44.35 60.538 44.176 60.91 43.828C61.282 43.48 61.468 42.952 61.468 42.244V41.272C61.216 41.728 60.838 42.088 60.334 42.352C59.83 42.616 59.266 42.748 58.642 42.748C57.874 42.748 57.19 42.568 56.59 42.208C56.002 41.848 55.54 41.338 55.204 40.678C54.868 40.006 54.7 39.232 54.7 38.356C54.7 37.48 54.868 36.712 55.204 36.052C55.54 35.38 56.002 34.864 56.59 34.504C57.19 34.132 57.874 33.946 58.642 33.946C59.254 33.946 59.806 34.078 60.298 34.342C60.802 34.594 61.186 34.948 61.45 35.404V35.224C61.45 34.84 61.57 34.54 61.81 34.324C62.062 34.096 62.392 33.982 62.8 33.982ZM59.434 40.678C60.07 40.678 60.562 40.474 60.91 40.066C61.27 39.658 61.45 39.088 61.45 38.356C61.45 37.624 61.27 37.054 60.91 36.646C60.562 36.226 60.07 36.016 59.434 36.016C58.798 36.016 58.3 36.226 57.94 36.646C57.58 37.054 57.4 37.624 57.4 38.356C57.4 39.088 57.58 39.658 57.94 40.066C58.3 40.474 58.798 40.678 59.434 40.678ZM72.8653 33.946C73.9213 33.946 74.7073 34.258 75.2233 34.882C75.7393 35.494 75.9973 36.424 75.9973 37.672V41.83C75.9973 42.226 75.8713 42.538 75.6193 42.766C75.3793 42.994 75.0493 43.108 74.6293 43.108C74.2093 43.108 73.8793 42.994 73.6393 42.766C73.3993 42.538 73.2793 42.226 73.2793 41.83V37.798C73.2793 37.198 73.1653 36.76 72.9373 36.484C72.7213 36.208 72.3793 36.07 71.9113 36.07C71.3473 36.07 70.8913 36.25 70.5433 36.61C70.2073 36.97 70.0393 37.45 70.0393 38.05V41.83C70.0393 42.226 69.9193 42.538 69.6793 42.766C69.4393 42.994 69.1093 43.108 68.6893 43.108C68.2693 43.108 67.9333 42.994 67.6813 42.766C67.4413 42.538 67.3213 42.226 67.3213 41.83V35.224C67.3213 34.852 67.4473 34.552 67.6993 34.324C67.9633 34.096 68.2993 33.982 68.7073 33.982C69.0793 33.982 69.3793 34.096 69.6073 34.324C69.8473 34.54 69.9673 34.822 69.9673 35.17V35.422C70.2793 34.942 70.6813 34.576 71.1733 34.324C71.6773 34.072 72.2413 33.946 72.8653 33.946ZM90.8118 43.162C89.0358 43.162 87.6798 42.706 86.7438 41.794C85.8198 40.87 85.3578 39.526 85.3578 37.762V31.606C85.3578 31.186 85.4838 30.85 85.7358 30.598C85.9878 30.346 86.3238 30.22 86.7438 30.22C87.1638 30.22 87.4938 30.346 87.7338 30.598C87.9858 30.85 88.1118 31.186 88.1118 31.606V37.888C88.1118 38.896 88.3398 39.664 88.7958 40.192C89.2638 40.72 89.9358 40.984 90.8118 40.984C91.6878 40.984 92.3598 40.72 92.8278 40.192C93.2958 39.652 93.5298 38.884 93.5298 37.888V31.606C93.5298 31.186 93.6498 30.85 93.8898 30.598C94.1418 30.346 94.4778 30.22 94.8978 30.22C95.3178 30.22 95.6538 30.346 95.9058 30.598C96.1578 30.85 96.2838 31.186 96.2838 31.606V37.762C96.2838 39.514 95.8158 40.852 94.8798 41.776C93.9438 42.7 92.5878 43.162 90.8118 43.162ZM105.072 33.946C105.828 33.946 106.5 34.144 107.088 34.54C107.688 34.924 108.15 35.47 108.474 36.178C108.81 36.874 108.978 37.678 108.978 38.59C108.978 39.502 108.81 40.306 108.474 41.002C108.15 41.686 107.694 42.214 107.106 42.586C106.518 42.958 105.84 43.144 105.072 43.144C104.472 43.144 103.926 43.024 103.434 42.784C102.954 42.532 102.582 42.184 102.318 41.74V45.142C102.318 45.502 102.198 45.79 101.958 46.006C101.718 46.222 101.4 46.33 101.004 46.33C100.584 46.33 100.242 46.216 99.9784 45.988C99.7264 45.76 99.6004 45.46 99.6004 45.088V35.26C99.6004 34.876 99.7204 34.57 99.9604 34.342C100.212 34.102 100.542 33.982 100.95 33.982C101.358 33.982 101.682 34.102 101.922 34.342C102.162 34.57 102.282 34.876 102.282 35.26V35.404C102.546 34.948 102.924 34.594 103.416 34.342C103.908 34.078 104.46 33.946 105.072 33.946ZM104.28 41.074C104.916 41.074 105.408 40.864 105.756 40.444C106.104 40.012 106.278 39.394 106.278 38.59C106.278 37.774 106.104 37.144 105.756 36.7C105.408 36.244 104.916 36.016 104.28 36.016C103.644 36.016 103.152 36.238 102.804 36.682C102.456 37.114 102.282 37.738 102.282 38.554C102.282 39.358 102.456 39.982 102.804 40.426C103.152 40.858 103.644 41.074 104.28 41.074Z" fill="#3750B2"/>
<defs>
<filter id="filter0_d" x="0" y="0" width="148" height="83" filterUnits="userSpaceOnUse" color-interpolation-filters="sRGB">
<feFlood flood-opacity="0" result="BackgroundImageFix"/>
<feColorMatrix in="SourceAlpha" type="matrix" values="0 0 0 0 0 0 0 0 0 0 0 0 0 0 0 0 0 0 127 0"/>
<feOffset dy="7"/>
<feGaussianBlur stdDeviation="10"/>
<feColorMatrix type="matrix" values="0 0 0 0 0.215686 0 0 0 0 0.313726 0 0 0 0 0.698039 0 0 0 0.4 0"/>
<feBlend mode="normal" in2="BackgroundImageFix" result="effect1_dropShadow"/>
<feBlend mode="normal" in="SourceGraphic" in2="effect1_dropShadow" result="shape"/>
</filter>
</defs>
</svg>
